<svg width="1028" height="832" viewBox="0 0 1028 832" fill="none" xmlns="http://www.w3.org/2000/svg">
<g clip-path="url(#clip0_1571_289)">
<rect width="1028" height="832" fill="white"/>
<g clip-path="url(#clip1_1571_289)" filter="url(#filter0_f_1571_289)">
<rect width="1295.28" height="948.78" transform="translate(-133.64 -58.3901)" fill="#0A6847"/>
<path d="M513.998 701.506C513.998 859.187 386.173 987.013 228.492 987.013C70.8115 987.013 -295.745 859.187 -295.745 701.506C-295.745 543.826 70.8115 416 228.492 416C386.173 416 513.998 543.826 513.998 701.506Z" fill="#6DA56B"/>
<path d="M-353.106 283.818C-182.092 288.07 -183.078 156.489 -440.302 16.339C-675.885 -112.02 -351.26 -367.685 -61.6172 -260.621C189.198 -167.91 359.001 82.8361 351.465 340.296C309.347 190.691 258.697 190.47 258.155 482.651C257.614 774.832 -173.716 477.009 -353.106 283.818Z" fill="#F6E9B2"/>
<path d="M721.017 262.003C702.18 250.23 599.53 93.9189 508.286 93.9189C378.778 93.9189 24.5887 259.827 172.934 311.63C358.366 376.384 209.231 701.412 226.891 742.619C244.551 783.826 370.685 929.783 721.017 742.619C935.882 627.828 744.563 276.72 721.017 262.003Z" fill="#7ABA78"/>
<path d="M581.442 665.913C752.456 670.165 745.432 215.356 488.208 75.206C252.625 -53.1532 577.251 -308.818 866.893 -201.754C1117.71 -109.043 1287.51 141.703 1279.98 399.163C1237.86 249.558 1187.21 249.338 1186.67 541.518C1186.12 833.699 760.832 859.104 581.442 665.913Z" fill="#F3CA52"/>
<path d="M960.584 416C915.603 541.384 827.469 699.102 995.398 542.741C1149.2 399.535 1222.82 529.641 1260.3 784.096C1290.29 987.661 765.666 904.014 574.497 836.405C696.945 841.322 887.115 833.454 668.207 762.65C449.3 691.845 771.913 502.048 960.584 416Z" fill="#D0F6B2"/>
</g>
</g>
<defs>
<filter id="filter0_f_1571_289" x="-276.02" y="-200.77" width="1580.04" height="1233.54" filterUnits="userSpaceOnUse" color-interpolation-filters="sRGB">
<feFlood flood-opacity="0" result="BackgroundImageFix"/>
<feBlend mode="normal" in="SourceGraphic" in2="BackgroundImageFix" result="shape"/>
<feGaussianBlur stdDeviation="71.19" result="effect1_foregroundBlur_1571_289"/>
</filter>
<clipPath id="clip0_1571_289">
<rect width="1028" height="832" fill="white"/>
</clipPath>
<clipPath id="clip1_1571_289">
<rect width="1295.28" height="948.78" fill="white" transform="translate(-133.64 -58.3901)"/>
</clipPath>
</defs>
</svg>
