<svg width="1340" height="891" viewBox="0 0 1340 891" fill="none" xmlns="http://www.w3.org/2000/svg">
<rect y="-6" width="1280" height="805" fill="#3BC25C"/>
<path opacity="0.15" d="M904.858 -6C904.163 -5.02191 903.446 -4.06555 902.772 -3.08746C856.911 62.9012 845.528 146.713 861.43 224.569C869.338 263.236 885.327 299.773 908.616 331.659C920.478 347.917 934.099 362.871 948.981 376.412C962.95 389.128 978.852 399.452 993.777 410.994C1017.74 429.49 1045 455.116 1045.07 487.828C1045.11 513.889 1028.12 536.363 1008.88 552.317C987.26 570.249 960.495 583.007 932.97 588.637C921.238 591.028 908.573 592.484 896.646 590.615C879.831 587.963 863.689 580.203 848.982 571.944C817.329 554.164 788.174 530.06 752.198 521.409C717.743 513.128 683.635 522.496 653.133 538.95C621.502 556.012 593.607 579.117 565.496 601.265C538.057 622.87 509.663 642.519 478.597 658.603C411.619 693.271 324.829 714.311 257.308 669.145C229.783 650.713 208.993 624.435 184.813 602.178C172.191 590.571 158.482 580.008 142.906 572.683C128.459 565.88 112.622 561.946 96.7625 560.272C64.6099 556.881 29.7634 562.533 -0.0429688 577.139V798.688H1332.75V-6H904.858Z" fill="#29AC4A"/>
<path opacity="0.15" d="M978.548 -2C971.661 3.0571 964.992 8.41937 958.561 14.1086C906.096 60.3418 872.183 128.504 871.836 199.216C871.684 231.063 884.089 259.313 910.071 278.102C934.99 296.129 965.6 305.044 994.733 313.546C1026.32 322.744 1059.26 334.624 1079.55 362.329C1096.6 385.609 1096.97 414.622 1084.48 440.104C1076.2 456.975 1063.62 471.188 1049.96 483.874C1035.47 497.345 1019.46 509.203 1001.9 518.402C970.119 535.055 934.772 541.769 899.187 543.077C879.57 543.796 859.931 543.055 840.357 541.9C824.259 540.941 808.639 540.178 792.693 543.448C765.298 549.028 741.379 563.894 720.436 581.986C680.05 616.863 648.114 664.273 598.365 686.899C536.123 715.193 468.016 689.45 413.292 656.448C383.529 638.508 354.939 618.41 323.395 603.631C305.95 595.457 287.375 588.634 268.366 585.299C245.207 581.223 221.419 583.207 198.738 589.049C156.114 600.035 115.902 623.358 81.294 650.279C55.4415 670.376 30.2191 693.918 0 707.302V804.935H1332.79V-2H978.548Z" fill="#29AC4A"/>
<path opacity="0.15" d="M904.858 -2C904.163 -1.0191 903.446 -0.0599912 902.772 0.920912C856.911 67.0992 845.528 151.152 861.43 229.232C869.338 268.01 885.327 304.652 908.616 336.63C920.478 352.934 934.099 367.931 948.981 381.511C962.95 394.263 978.852 404.617 993.777 416.192C1017.74 434.742 1045 460.441 1045.07 493.247C1045.11 519.383 1028.12 541.922 1008.88 557.921C987.26 575.905 960.495 588.7 932.97 594.346C921.238 596.743 908.573 598.204 896.646 596.329C879.831 593.67 863.689 585.888 848.982 577.605C817.329 559.774 788.174 535.6 752.198 526.925C717.743 518.62 683.635 528.015 653.133 544.516C621.502 561.627 593.607 584.798 565.496 607.01C538.057 628.677 509.663 648.382 478.597 664.513C411.619 699.28 324.829 720.381 257.308 675.085C229.783 656.6 208.993 630.247 184.813 607.926C172.191 596.286 158.482 585.692 142.906 578.346C128.459 571.523 112.622 567.578 96.7625 565.899C64.6099 562.499 29.7634 568.166 -0.0429688 582.815V805H1332.75V-2H904.858Z" fill="#29AC4A"/>
<path d="M940.964 791.202C912.309 764.26 885.414 732.391 846.244 721.1C825.714 715.171 803.642 715.149 783.003 720.577C764.711 725.394 747.896 734.31 731.689 743.879C699.515 762.887 667.319 784.314 628.888 786.755C590.5 789.197 560.65 765.938 529.584 747.04C488.351 721.95 441.143 714.321 393.522 720.228C367.735 723.432 343.229 730.691 319.028 739.955C296.738 748.478 273.645 755.192 249.943 758.287C204.56 764.238 159.785 754.538 120.963 730.124C83.7923 706.757 56.0064 674.039 34.2165 636.176C21.3771 613.898 10.5148 590.575 0 567.12V804.935H956.714C951.305 800.597 946.069 795.998 940.964 791.202Z" fill="white"/>
<path d="M1091.89 -1C1067.09 22.7598 1045.17 49.7172 1027.56 79.0949C1005.99 115.09 989.706 156.348 985.806 198.382C983.878 219.144 985.252 240.351 991.656 260.269C998.592 281.853 1011.33 300.105 1027.84 315.449C1061.79 346.959 1101.64 371.118 1137.56 400.185C1173.15 428.986 1202.2 462.449 1219.2 505.461C1236.07 548.162 1244.27 595.615 1246.46 641.38C1248.28 678.952 1237.44 716.679 1219.42 749.387C1204.58 776.345 1183.66 801.548 1158.7 821H1340V-1H1091.89Z" fill="white"/>
<g clip-path="url(#clip0_875_262)">
<path d="M751.703 561C770.342 561 785.451 545.885 785.451 527.239C785.451 508.594 770.342 493.478 751.703 493.478C733.065 493.478 717.956 508.594 717.956 527.239C717.956 545.885 733.065 561 751.703 561Z" fill="#F5DF4D"/>
<path d="M794.819 254.726H712.999C708.763 254.726 705.336 251.297 705.336 247.059C705.336 242.822 708.763 239.393 712.999 239.393H794.802C799.038 239.393 802.465 242.822 802.465 247.059C802.483 251.297 799.055 254.726 794.819 254.726Z" fill="white"/>
<path d="M971.571 372.625H828.338C820.92 372.625 814.909 366.611 814.909 359.191C814.909 351.771 820.92 345.757 828.338 345.757H971.553C978.971 345.757 984.982 351.771 984.982 359.191C985 366.611 978.988 372.625 971.571 372.625Z" fill="white"/>
<path d="M766.978 405.946C766.978 413.367 772.989 419.38 780.406 419.38H840.993C848.411 419.38 854.422 413.367 854.422 405.946C854.422 398.526 848.411 392.512 840.993 392.512H780.406C772.989 392.512 766.978 398.526 766.978 405.946Z" fill="#F5DF4D"/>
<path d="M875.901 222.284C908.275 222.284 934.519 196.029 934.519 163.642C934.519 131.255 908.275 105 875.901 105C843.527 105 817.282 131.255 817.282 163.642C817.282 196.029 843.527 222.284 875.901 222.284Z" fill="#F5DF4D"/>
<path d="M853.859 184.707H772.039C767.803 184.707 764.376 181.278 764.376 177.041C764.376 172.803 767.803 169.374 772.039 169.374H853.859C858.095 169.374 861.523 172.803 861.523 177.041C861.523 181.261 858.095 184.707 853.859 184.707Z" fill="white"/>
<path d="M925.397 259.86C936.017 259.86 944.626 251.248 944.626 240.624C944.626 229.999 936.017 221.387 925.397 221.387C914.777 221.387 906.168 229.999 906.168 240.624C906.168 251.248 914.777 259.86 925.397 259.86Z" fill="#29AC4A"/>
</g>
<path d="M1073.88 166.331L1034 141.184L1073.88 116L1073.88 166.331Z" fill="#FFD633"/>
<path d="M1235 344L1169 302.521L1235 261L1235 344Z" fill="#29AC4A"/>
<path d="M1097.5 891C1231.43 891 1340 782.429 1340 648.5C1340 514.571 1231.43 406 1097.5 406C963.571 406 855 514.571 855 648.5C855 782.429 963.571 891 1097.5 891Z" fill="#F5DF4D"/>
<defs>
<clipPath id="clip0_875_262">
<rect width="328" height="456" fill="white" transform="translate(657 105)"/>
</clipPath>
</defs>
</svg>
