<svg width="204" height="363" viewBox="0 0 204 363" fill="none" xmlns="http://www.w3.org/2000/svg">
<path d="M22.5001 235.5C-7.29465 235.5 -31.5002 211.253 -31.5002 181.5C-31.5002 151.747 -7.25262 127.5 22.5001 127.5C52.2528 127.5 76.5005 151.747 76.5005 181.5C76.5005 211.253 52.2948 235.5 22.5001 235.5ZM22.5001 136.367C-2.37789 136.367 -22.6333 156.622 -22.6333 181.542C-22.6333 206.42 -2.37789 226.675 22.5001 226.675C47.3781 226.675 67.6755 206.42 67.6755 181.542C67.6755 156.622 47.4201 136.367 22.5001 136.367Z" fill="url(#paint0_linear_266_414)"/>
<path d="M22.4999 278.028C-30.702 278.028 -74.0283 234.744 -74.0283 181.5C-74.0283 128.298 -30.744 84.9717 22.4999 84.9717C75.7018 84.9717 119.028 128.256 119.028 181.5C119.028 234.744 75.7439 278.028 22.4999 278.028ZM22.4999 93.8387C-25.8272 93.8387 -65.1613 133.173 -65.1613 181.5C-65.1613 229.827 -25.8272 269.161 22.4999 269.161C70.8271 269.161 110.161 229.827 110.161 181.5C110.161 133.173 70.8271 93.8387 22.4999 93.8387Z" fill="url(#paint1_linear_266_414)"/>
<path d="M22.5 320.514C-54.1511 320.514 -116.514 258.151 -116.514 181.5C-116.514 104.849 -54.1511 42.4859 22.5 42.4859C99.151 42.4859 161.514 104.849 161.514 181.5C161.514 258.151 99.151 320.514 22.5 320.514ZM22.5 51.3529C-49.2764 51.3529 -107.647 109.724 -107.647 181.5C-107.647 253.276 -49.2764 311.647 22.5 311.647C94.2763 311.647 152.647 253.276 152.647 181.5C152.647 109.724 94.2763 51.3529 22.5 51.3529Z" fill="url(#paint2_linear_266_414)"/>
<path d="M22.5 363C-77.5582 363 -159 281.6 -159 181.5C-159 81.3997 -77.5582 0 22.5 0C122.6 0 204 81.4418 204 181.5C204 281.558 122.6 363 22.5 363ZM22.5 8.86698C-72.6835 8.86698 -150.133 86.3165 -150.133 181.542C-150.133 276.726 -72.6835 354.175 22.5 354.175C117.683 354.175 195.175 276.726 195.175 181.542C195.175 86.3165 117.725 8.86698 22.5 8.86698Z" fill="url(#paint3_linear_266_414)"/>
<defs>
<linearGradient id="paint0_linear_266_414" x1="-31.5002" y1="181.508" x2="76.5177" y2="181.508" gradientUnits="userSpaceOnUse">
<stop stop-color="#29AC4A"/>
<stop offset="1" stop-color="#FFD633"/>
</linearGradient>
<linearGradient id="paint1_linear_266_414" x1="-74.0006" y1="181.508" x2="119.017" y2="181.508" gradientUnits="userSpaceOnUse">
<stop stop-color="#29AC4A"/>
<stop offset="1" stop-color="#FFD633"/>
</linearGradient>
<linearGradient id="paint2_linear_266_414" x1="-116.5" y1="181.508" x2="161.517" y2="181.508" gradientUnits="userSpaceOnUse">
<stop stop-color="#29AC4A"/>
<stop offset="1" stop-color="#FFD633"/>
</linearGradient>
<linearGradient id="paint3_linear_266_414" x1="-159" y1="181.509" x2="204.017" y2="181.509" gradientUnits="userSpaceOnUse">
<stop stop-color="#29AC4A"/>
<stop offset="1" stop-color="#FFD633"/>
</linearGradient>
</defs>
</svg>
