<svg width="25" height="25" viewBox="0 0 25 25" fill="none" xmlns="http://www.w3.org/2000/svg">
<path d="M21.7654 12.282C20.8719 13.0452 19.7354 13.4645 18.5603 13.4647C18.4737 13.4647 18.3936 13.4647 18.3135 13.4647C18.9955 14.4735 19.3595 15.6636 19.3583 16.8813V20.5416H24.5186V16.8813C24.5186 15.9374 24.2626 15.011 23.7778 14.2011C23.2929 13.3911 22.5974 12.7279 21.7654 12.282Z" fill="white"/>
<path d="M16.3462 11.6186C16.2949 11.6827 16.2469 11.7404 16.1924 11.7981C16.8785 12.295 17.7042 12.562 18.5514 12.5609C19.0928 12.5762 19.6317 12.4827 20.1364 12.286C20.641 12.0893 21.1011 11.7935 21.4894 11.4159C21.8777 11.0384 22.1864 10.5868 22.3972 10.0879C22.608 9.58897 22.7166 9.05286 22.7166 8.51124C22.7166 7.96963 22.608 7.43352 22.3972 6.9346C22.1864 6.43569 21.8777 5.9841 21.4894 5.60655C21.1011 5.229 20.641 4.93314 20.1364 4.73648C19.6317 4.53981 19.0928 4.44633 18.5514 4.46156C17.7043 4.4609 16.8787 4.72788 16.1924 5.22438C16.9765 6.09984 17.4227 7.22622 17.4509 8.40115C17.4791 9.57609 17.0874 10.7226 16.3462 11.6346V11.6186Z" fill="white"/>
<path d="M6.4388 13.4615C5.26371 13.4614 4.12721 13.042 3.23368 12.2788C2.40116 12.725 1.70537 13.3887 1.22049 14.1993C0.735615 15.0099 0.479849 15.9368 0.48047 16.8814V20.5416H5.64073V16.8814C5.63893 15.6625 6.00292 14.4712 6.6856 13.4615C6.60547 13.4615 6.52534 13.4615 6.4388 13.4615Z" fill="white"/>
<path d="M6.43898 12.5608C7.28611 12.5619 8.11186 12.2949 8.79795 11.798C8.74346 11.7403 8.69539 11.6826 8.64411 11.6185C7.90716 10.7077 7.51803 9.56446 7.54621 8.39315C7.57439 7.22183 8.01805 6.09867 8.79795 5.2243C8.19329 4.78982 7.48052 4.53052 6.73803 4.47492C5.99554 4.41933 5.2521 4.56959 4.58948 4.90918C3.92686 5.24877 3.37074 5.76454 2.98229 6.39974C2.59383 7.03495 2.38809 7.76498 2.3877 8.50955C2.38939 9.5835 2.81677 10.613 3.57616 11.3724C4.33556 12.1318 5.36503 12.5591 6.43898 12.5608Z" fill="white"/>
<path d="M15.7045 12.2788C14.8109 13.0418 13.6744 13.461 12.4993 13.461C11.3243 13.461 10.1878 13.0418 9.29422 12.2788C8.46309 12.7258 7.76837 13.3893 7.28367 14.199C6.79898 15.0087 6.54236 15.9345 6.54102 16.8782V20.5384H18.4577V16.8782C18.4563 15.9345 18.1997 15.0087 17.715 14.199C17.2303 13.3893 16.5356 12.7258 15.7045 12.2788Z" fill="white"/>
<path d="M12.4998 12.5608C13.3008 12.5602 14.0836 12.3221 14.7494 11.8767C15.4151 11.4313 15.9339 10.7986 16.2401 10.0584C16.5463 9.31827 16.6263 8.50396 16.4699 7.71838C16.3135 6.93281 15.9277 6.21124 15.3613 5.64485C14.7949 5.07846 14.0733 4.69268 13.2877 4.53625C12.5022 4.37983 11.6879 4.45979 10.9477 4.76603C10.2076 5.07226 9.57482 5.59103 9.12941 6.25676C8.68401 6.9225 8.44595 7.70533 8.44531 8.50633C8.44701 9.58113 8.87472 10.6114 9.63472 11.3714C10.3947 12.1314 11.425 12.5591 12.4998 12.5608Z" fill="white"/>
</svg>
