<svg width="361" height="361" viewBox="0 0 361 361" fill="none" xmlns="http://www.w3.org/2000/svg">
<path d="M138.061 191.383C131.813 168.061 145.682 144.036 168.928 137.807C192.174 131.577 216.203 145.48 222.442 168.769C228.681 192.059 214.822 216.116 191.576 222.346C168.33 228.576 144.31 214.706 138.061 191.383ZM215.514 170.626C210.297 151.152 190.224 139.538 170.754 144.756C151.317 149.965 139.739 170.062 144.956 189.535C150.173 209.009 170.255 220.656 189.692 215.447C209.162 210.229 220.74 190.133 215.514 170.626Z" fill="#FFD633"/>
<path d="M104.642 200.288C93.4854 158.643 118.218 115.666 159.817 104.517C201.384 93.3772 244.311 118.187 255.477 159.864C266.633 201.509 241.901 244.487 200.302 255.636C158.702 266.784 115.807 241.966 104.642 200.288ZM248.549 161.721C238.415 123.892 199.434 101.339 161.677 111.458C123.919 121.577 101.435 160.603 111.57 198.432C121.704 236.26 160.684 258.814 198.442 248.695C236.2 238.576 258.683 199.55 248.549 161.721Z" fill="#29AC4A"/>
<path d="M71.6408 209.184C55.5668 149.184 91.2132 87.3102 151.101 71.2604C210.988 55.2106 272.79 90.9684 288.864 150.969C304.937 210.969 269.291 272.842 209.404 288.892C149.516 304.942 87.7147 269.184 71.6408 209.184ZM281.936 152.825C266.884 96.6409 209.039 63.1722 152.96 78.2012C96.8813 93.2303 63.5168 151.143 78.5685 207.328C93.6202 263.512 151.466 296.981 207.544 281.952C263.623 266.922 296.987 209.009 281.936 152.825Z" fill="#FFD633"/>
<path d="M38.2537 218.08C17.2712 139.758 63.7901 58.9636 141.998 38.0039C220.206 17.0441 300.882 63.7501 321.865 142.073C342.856 220.428 296.296 301.198 218.12 322.149C139.945 343.1 59.245 296.436 38.2537 218.08ZM314.937 143.929C294.977 69.4225 218.224 25.0144 143.825 44.9535C69.4581 64.8837 25.1884 141.726 45.1486 216.232C65.1089 290.739 141.87 335.18 216.237 315.25C290.636 295.311 334.906 218.469 314.937 143.929Z" fill="#29AC4A"/>
</svg>
