<svg xmlns="http://www.w3.org/2000/svg" width="1280" height="241" viewBox="0 0 1280 241" fill="none">
  <path d="M-2 153.376L21.826 173.794C45.5628 194.596 93.4826 234.857 140.778 235.145C188.341 234.857 236.26 194.596 283.556 189.132C331.118 184.051 379.038 214.726 426.333 230.064C473.896 245.402 521.816 245.402 569.111 224.983C616.674 204.182 664.594 163.921 711.889 168.714C759.452 173.507 807.372 225.271 854.667 214.726C902.23 204.182 950.149 133.245 997.444 117.62C1045.01 102.57 1092.93 142.831 1140.22 168.714C1187.79 194.596 1235.7 204.182 1258.91 209.646L1283 214.726V0H1259.17C1235.44 0 1187.52 0 1140.22 0C1092.66 0 1044.74 0 997.444 0C949.882 0 901.962 0 854.667 0C807.104 0 759.184 0 711.889 0C664.326 0 616.406 0 569.111 0C521.548 0 473.628 0 426.333 0C378.771 0 330.851 0 283.556 0C235.993 0 188.073 0 140.778 0C93.2149 0 45.2951 0 22.0938 0H-2V153.376Z" fill="#212C4F"/>
</svg>