<svg width="1280" height="189" viewBox="0 0 1280 189" fill="none" xmlns="http://www.w3.org/2000/svg">
<path d="M-2 20.1451L21.826 36.1522C45.5628 52.46 93.4826 84.0234 140.778 88.3071C188.341 92.2901 236.26 68.2417 283.556 80.2659C331.118 92.2901 379.038 140.387 426.333 132.346C473.896 124.605 521.816 59.9751 569.111 44.1934C616.674 28.4117 664.594 59.9751 711.889 60.2006C759.452 59.9751 807.372 28.4117 854.667 12.1039C902.229 -3.90328 950.149 -3.90328 997.444 12.1039C1045.01 28.4117 1092.93 59.9751 1140.22 84.2489C1187.79 108.072 1235.7 124.605 1258.91 132.346L1283 140.387L1283 188.483L1259.17 188.483C1235.44 188.483 1187.52 188.483 1140.22 188.483C1092.66 188.483 1044.74 188.483 997.444 188.483C949.882 188.483 901.962 188.483 854.667 188.483C807.104 188.483 759.184 188.483 711.889 188.483C664.326 188.483 616.406 188.483 569.111 188.483C521.548 188.483 473.628 188.483 426.333 188.483C378.77 188.483 330.851 188.483 283.556 188.483C235.993 188.483 188.073 188.483 140.778 188.483C93.2149 188.483 45.2951 188.483 22.0938 188.483L-2 188.483L-2 20.1451Z" fill="#212C4F"/>
</svg>
