<svg width="41" height="43" viewBox="0 0 41 43" fill="none" xmlns="http://www.w3.org/2000/svg">
<g clip-path="url(#clip0_1988_383)">
<path d="M24.4609 32.9774C24.2027 32.7114 23.8267 31.8995 23.4375 30.7672C23.2821 30.3148 23.2429 30.2246 23.1998 30.2179C23.1705 30.2134 22.4742 30.5196 21.6525 30.8995L19.6931 31.7741C17.8847 32.4988 16.2865 32.7326 14.6984 32.505C14.581 32.4882 14.4851 32.4656 14.4851 32.4549C14.4851 32.4442 14.5229 32.4272 14.5691 32.4171C14.9276 32.3395 15.7604 32.0013 16.2267 31.7441C18.5129 30.4825 20.1552 28.5724 21.1868 25.9746C21.5797 24.9854 21.8425 23.9746 21.9297 23.119C21.9718 22.7053 21.9495 21.7504 21.8901 21.4252C21.8009 20.9374 21.6389 20.4688 21.3863 19.969C21.0773 19.3563 20.6493 18.8609 20.1307 18.5153C19.9751 18.4116 19.8246 18.3061 19.7964 18.2809C19.6336 18.1368 18.7464 17.8397 18.0776 17.7053C17.3842 17.566 17.1325 17.5462 16.0874 17.5476C14.9055 17.5491 13.6456 17.6321 11.2025 17.8688C8.58606 18.1207 7.03859 18.1248 5.93185 17.8782C5.16064 17.7063 4.41692 17.3314 3.96742 16.8873C2.95282 15.8856 2.86217 14.2729 3.72967 12.6275C3.85375 12.3904 3.8909 12.3421 3.96713 12.3089C4.50058 12.079 6.52965 11.9318 8.36925 11.9897C9.20198 12.016 10.2514 12.0753 10.5982 12.1154L10.7533 12.1335L10.8013 12.2753C10.834 12.3719 10.8533 12.5238 10.8622 12.7522C10.8734 13.0362 10.8667 13.1223 10.8202 13.3172C10.7206 13.7317 10.5465 14.0048 10.2129 14.27C9.74391 14.6427 9.22472 14.7565 8.73435 14.5941C8.50849 14.5193 8.38189 14.4003 8.25989 14.1481C8.0257 13.6644 8.01991 13.299 8.24399 13.1231C8.28084 13.0942 8.31086 13.0524 8.31086 13.0302C8.31086 12.8716 7.06801 13.3384 6.75284 13.6158C6.68478 13.6757 6.61212 13.7576 6.59117 13.7981C6.52385 13.928 6.47184 14.2148 6.47229 14.4538C6.47333 15.074 6.81703 15.5467 7.36862 15.6867C7.98424 15.8432 8.86051 15.6829 9.74524 15.2519C10.5318 14.8687 11.1233 14.3598 11.4698 13.7686C11.6581 13.447 11.7923 13.0534 11.8785 12.5708C11.9086 12.4013 11.9412 12.2551 11.9507 12.2463C11.9708 12.2277 12.9466 12.3165 13.9674 12.4296C16.6421 12.7262 18.5017 13.1097 19.4182 13.555C19.9089 13.7933 19.8669 13.729 20.4683 15.1618L23.5212 22.4304L26.1273 28.6606C26.1641 28.7643 26.3766 29.279 26.5995 29.8076C27.568 32.1049 27.5175 31.9764 27.4683 32.0143C27.4065 32.0621 26.6297 32.45 26.2718 32.6115C25.5474 32.9375 24.985 33.1268 24.7279 33.1268C24.6174 33.1268 24.5994 33.1167 24.4654 32.9786L24.4609 32.9774ZM12.0024 32.5454C10.905 32.4235 9.95268 32.1039 9.21105 31.6089C8.70493 31.271 8.33656 30.9043 7.99316 30.3959C7.54738 29.7382 7.37203 29.1908 7.36802 28.4601C7.36594 28.1119 7.41409 27.6211 7.45198 27.5976C7.46119 27.592 7.56699 27.7171 7.68705 27.8755C9.41522 30.157 11.4976 31.7276 13.6046 32.3381C13.7778 32.3885 13.9359 32.4294 13.9561 32.4294C13.9763 32.4294 13.9925 32.4398 13.9925 32.4522C13.9925 32.4765 13.7488 32.5164 13.3464 32.5579C13.0166 32.592 12.3657 32.5859 12.0024 32.5454ZM27.9001 31.8665C27.8878 31.843 27.718 31.4352 27.5227 30.9606L26.4548 28.3959C26.3056 28.0551 21.3829 16.0831 20.6674 14.3229C20.4484 13.784 20.4475 13.7812 20.4616 13.6013C20.517 12.8919 21.3498 11.461 22.8543 9.48999C23.501 8.64281 24.8514 6.99112 24.9123 6.9723C24.9266 6.96785 25.0412 7.03795 25.1672 7.1279C25.4457 7.32647 25.9167 7.58164 26.142 7.65574C26.7007 7.83949 27.3792 7.85964 28.0163 7.71131C28.9729 7.48858 29.8322 7.03809 30.3468 6.48936C30.7911 6.01561 30.8802 5.51222 30.6095 5.00542C30.459 4.72387 30.1479 4.43831 29.8472 4.30554C29.6837 4.23292 29.4865 4.251 29.1183 4.3737C28.6503 4.52959 28.0267 4.85145 28.0267 4.93711C28.0267 4.96348 28.0743 4.97564 28.204 4.98304C28.3502 4.99134 28.3984 5.00601 28.4782 5.06677C28.6966 5.23274 28.9314 5.74013 28.9314 6.04584C28.9314 6.27138 28.8247 6.47825 28.5843 6.7186C28.3728 6.92992 28.1697 7.0455 27.8811 7.11915C27.0341 7.33521 26.3499 7.04862 25.8384 6.26323C25.7767 6.16839 25.7266 6.06999 25.7269 6.04421C25.728 5.98701 26.5341 5.07951 27.3071 4.26552C28.4761 3.03454 29.6106 2.03087 30.4306 1.50185L30.6673 1.34921L30.8397 1.39693C31.863 1.67997 32.7733 2.25152 33.2793 2.92814C33.4735 3.18791 33.6662 3.58224 33.7526 3.89639C33.8435 4.22729 33.8661 4.73172 33.8055 5.08188C33.6885 5.75954 33.3751 6.45409 32.9035 7.0824C32.6108 7.47243 32.3571 7.75813 31.8571 8.26226C31.1359 8.98942 30.7333 9.34328 28.9442 10.822C26.4686 12.8685 25.415 13.8525 24.7248 14.7631C24.2661 15.3683 23.75 16.3116 23.6615 16.7061C23.5207 17.3344 23.4955 17.5444 23.5102 17.9691C23.5243 18.3806 23.6005 18.7802 23.7405 19.175C23.8612 19.5161 24.1325 20.0849 24.2744 20.2947C25.117 21.5395 26.5172 22.5557 28.4658 23.3355C30.4025 24.1105 32.2859 24.363 34.1764 24.1004C35.3094 23.9431 36.4338 23.5944 37.226 23.155C37.3549 23.0834 37.4607 23.0339 37.4607 23.0454C37.4607 23.0568 37.3793 23.174 37.2798 23.3062C36.4785 24.3731 35.3436 25.2643 33.9197 25.9489L33.4803 26.1626C33.3837 26.2151 33.4259 26.2829 33.757 26.6066C34.5942 27.4246 35.1248 27.7129 35.7913 27.7115C36.98 27.7089 38.3355 26.7275 39.9561 24.6959L40.3032 24.2606L40.3875 24.2969C40.4338 24.3168 40.4688 24.3455 40.4652 24.3607C40.4616 24.3758 40.3888 24.5192 40.3037 24.6797C40.1484 24.9722 39.369 26.047 39.2727 26.1013C39.2475 26.1155 39.0766 26.2939 38.8933 26.5009C38.4617 26.9847 37.631 27.8272 37.2588 28.1587C36.4736 28.8578 35.8431 29.2763 35.3271 29.4398C35.0754 29.5198 34.6395 29.5381 34.4095 29.4783C34.2077 29.426 33.9365 29.2883 33.7913 29.1644C33.4708 28.8909 33.1402 28.2778 32.8065 27.3385C32.6192 26.812 32.5405 26.6257 32.4925 26.5953C32.4619 26.576 32.1133 26.694 31.0979 27.067L29.712 27.5767C29.6504 27.6002 29.6822 27.6849 29.9322 28.1938C30.4746 29.2913 30.7651 30.0869 30.7652 30.4759C30.7652 30.63 30.7572 30.6581 30.6905 30.7337C30.472 30.9812 29.4507 31.4298 28.2513 31.8051C27.9548 31.8979 27.9189 31.9041 27.8988 31.8659L27.9001 31.8665ZM13.4369 31.4613L13.1268 31.4216C12.1491 31.2995 11.2388 30.8726 10.6067 30.24C10.2765 29.9095 10.047 29.5905 9.80869 29.1305C9.11802 27.7968 8.91386 26.5354 9.21431 25.4446C9.37584 24.8556 9.79116 24.2677 10.3251 23.873C10.9863 23.384 11.6688 23.143 12.3916 23.143C13.3389 23.143 14.093 23.5157 14.5331 24.2015C14.6052 24.3138 14.6171 24.3521 14.603 24.4268C14.5602 24.6539 14.0689 25.1763 12.8822 26.2563C11.6765 27.3534 11.3837 27.6557 11.3837 27.803C11.3837 27.8771 11.5464 28.0958 11.6819 28.2036C12.0118 28.4659 12.5274 28.5726 12.9922 28.4742C13.4554 28.3764 14.1807 27.9115 14.7315 27.3595C15.677 26.412 16.2439 25.056 16.1139 24.0527C15.9995 23.1701 15.4828 22.4593 14.7279 22.1459C14.3829 22.0026 14.1154 21.9568 13.6194 21.9556C13.0182 21.9541 12.5602 22.0407 11.9006 22.2794C11.5138 22.4194 10.7166 22.818 10.3887 23.0356C9.391 23.6971 8.6134 24.6055 8.00148 25.8244C7.80831 26.2088 7.58096 26.7762 7.48972 27.1003C7.45079 27.2386 7.41156 27.3517 7.4025 27.3517C7.36802 27.3517 6.74927 26.3881 6.4604 25.8851C5.66096 24.4918 4.73403 22.5568 4.06683 20.8894C3.99581 20.7119 3.94246 20.5619 3.9484 20.556C3.95435 20.55 4.12642 20.5712 4.33074 20.6031C4.65468 20.6535 4.80476 20.6612 5.50345 20.6621C6.3448 20.6633 6.46813 20.6536 7.50651 20.506C8.28693 20.3949 9.46737 20.1904 10.5549 19.9774C13.859 19.3308 15.3064 19.1286 16.3846 19.1635C17.3263 19.1938 18.1642 19.3643 18.7033 19.635C19.3596 19.9647 19.8178 20.4595 20.1956 21.2473C21.1134 23.1589 21.0515 25.0564 20.0062 27.0554C19.3155 28.3765 18.3033 29.4753 16.9699 30.3526C16.0149 30.9809 15.3498 31.2654 14.4985 31.4114C14.2709 31.4503 13.5909 31.4825 13.4383 31.4613H13.4369ZM31.6067 23.4942C29.5576 23.3223 27.6759 22.4485 26.6025 21.1696C25.9671 20.4128 25.4636 19.3914 25.2728 18.4726C25.2144 18.1918 25.2144 17.6131 25.2728 17.3428C25.3724 16.8799 25.5608 16.4644 25.8947 15.9703C26.7185 14.7516 27.6937 13.9368 30.9455 11.7503C33.0035 10.3662 34.1928 9.50703 34.9474 8.85916C35.4477 8.42942 36.0478 7.77562 36.3497 7.33062C36.3995 7.25726 36.4502 7.20021 36.4626 7.20406C36.4751 7.20792 36.5488 7.36114 36.6265 7.54489C37.4816 9.56319 38.2118 11.6812 38.5993 13.2659C38.7326 13.8113 38.8572 14.4298 38.8378 14.4493C38.8314 14.4557 38.7706 14.4268 38.7026 14.3852C38.1801 14.0647 37.0936 13.6665 36.324 13.5138C35.6021 13.3707 34.789 13.336 34.1401 13.4202C33.3025 13.5291 32.2124 13.8999 31.5272 14.309C30.8013 14.7423 30.1998 15.3681 29.9662 15.9331C29.7386 16.4835 29.7507 17.0887 30.0007 17.6817C30.3597 18.5306 31.2201 19.1601 32.4442 19.4695C32.9179 19.5892 33.2941 19.628 33.8298 19.6132C34.5258 19.5935 35.0936 19.4775 35.5211 19.2672C35.9573 19.0528 36.3126 18.6171 36.4023 18.1866C36.4329 18.0396 36.4246 17.7228 36.3874 17.6288C36.3276 17.4768 35.9082 17.4528 34.5276 17.5221C33.2542 17.5863 32.1409 17.5876 31.8749 17.5254C31.7664 17.5002 31.6602 17.4595 31.6386 17.435C31.5291 17.311 31.4811 16.6858 31.5544 16.3404C31.7152 15.5837 32.3252 14.8229 33.0824 14.4342C33.8551 14.0378 34.7731 13.9138 35.5223 14.1047C36.7013 14.4049 37.7215 15.5056 38.2984 17.1004C38.5517 17.8007 38.639 18.2918 38.6152 18.8861C38.5914 19.4773 38.4773 19.93 38.21 20.4897C37.6138 21.7385 36.6194 22.5969 35.2474 23.0471C34.6114 23.2561 33.7704 23.4241 33.0542 23.4855C32.7703 23.5098 31.8544 23.516 31.6068 23.4952L31.6067 23.4942ZM37.7969 22.701C37.7969 22.6918 37.8489 22.5946 37.9123 22.4846C38.4141 21.6171 38.8066 20.4882 38.996 19.3683C39.1298 18.5858 39.1521 18.261 39.1524 17.2353C39.1528 16.2461 39.1274 15.8542 39.0106 15.0206C38.983 14.8232 38.9638 14.6583 38.9681 14.654C38.996 14.6261 39.4855 15.0178 39.6858 15.2281C40.2196 15.7888 40.5132 16.4331 40.6283 17.2957C40.8309 18.8129 40.1759 20.4728 38.8341 21.8428C38.4522 22.2326 37.7969 22.7751 37.7969 22.701ZM3.46027 20.3439C3.11627 20.2495 2.94286 20.1827 2.643 20.0289C1.68783 19.5396 0.937422 18.4987 0.749895 17.403C0.731618 17.2968 0.710814 17.2271 0.703533 17.2483C0.696252 17.2695 0.68169 17.1723 0.671288 17.0319C0.651079 16.7593 0.676489 16.244 0.707694 16.2943C0.718096 16.3109 0.734738 16.2513 0.744843 16.1613C0.795662 15.7123 1.03133 15.0045 1.32734 14.4125C2.24313 12.5803 3.75092 11.0643 5.77181 9.94374C6.67527 9.44287 7.57932 9.12649 8.43583 9.01164C8.80984 8.96156 9.47599 8.96363 9.78165 9.01609C10.6494 9.16457 11.2043 9.60765 11.5539 10.4307C11.6926 10.757 11.7881 11.0848 11.8357 11.3973C11.8751 11.6562 11.8866 12.1338 11.854 12.1531C11.8225 12.1714 10.8089 12.0733 10.7894 12.0501C10.7796 12.0382 10.733 11.9244 10.6857 11.7967C10.5809 11.5139 10.3499 11.048 10.2191 10.8557C10.0934 10.671 9.77927 10.3751 9.58357 10.2563C9.36514 10.1239 9.07137 10.0118 8.73658 9.93322C8.47565 9.87187 8.39987 9.86564 7.91931 9.86535C7.32077 9.8649 7.0897 9.90091 6.59726 10.0719C5.58117 10.4246 4.50534 11.254 3.94781 12.115C3.85479 12.2587 3.85122 12.2611 3.61867 12.3328C3.25714 12.4445 2.9329 12.6111 2.75206 12.7781C1.98338 13.4894 2.13153 15.5427 3.17883 18.6976C3.28582 19.0202 3.46116 19.519 3.56815 19.806C3.8065 20.4453 3.79847 20.4185 3.75478 20.4162C3.73547 20.4152 3.60247 20.3827 3.46027 20.3439ZM36.377 6.79003C35.8357 5.57105 35.1244 4.22092 34.5336 3.29105C33.8141 2.1589 33.0441 1.32284 32.4424 1.02083C31.9571 0.777065 31.5963 0.802257 30.9348 1.12604L30.6505 1.26534L30.3533 1.21096C29.9943 1.14531 29.1057 1.13182 28.7638 1.1868C27.572 1.37826 26.757 1.75776 26.0742 2.43898C25.5147 2.9972 25.2103 3.54786 25.1306 4.14609C25.0703 4.59806 25.173 5.05743 25.4988 5.7954C25.6029 6.03132 25.6035 6.0325 25.5556 6.09429C25.5292 6.12778 25.3751 6.31361 25.2134 6.50744L24.9195 6.85983L24.8278 6.78425C24.5229 6.53352 24.1553 6.00331 23.9419 5.50644C23.7754 5.11863 23.7029 4.8067 23.7026 4.47684C23.7022 4.01405 23.8145 3.671 24.1113 3.22674C24.719 2.31717 25.9223 1.52467 27.3937 1.06321C28.2397 0.80033 29.5473 0.554785 30.172 0.543523C30.282 0.541449 30.2998 0.536114 30.2496 0.520258C30.2139 0.508847 30.4903 0.499512 30.8698 0.499512C31.2493 0.499512 31.5259 0.508699 31.4902 0.520258C31.4385 0.536558 31.4516 0.541449 31.5548 0.543523C31.7875 0.548265 32.3742 0.625026 32.7754 0.702972C35.0201 1.14012 36.4561 2.14957 36.9542 3.64033C37.1102 4.10741 37.1584 4.39504 37.1607 4.8762C37.1633 5.43635 37.0745 5.85616 36.8496 6.34532C36.7557 6.54923 36.5028 6.98993 36.4796 6.98964C36.4721 6.98964 36.4261 6.89984 36.377 6.79003Z" fill="#28AA49"/>
<path d="M25.9231 28.2857C25.6111 27.6218 24.6304 25.6794 24.28 25.0321C23.5712 23.7226 22.8552 22.5192 22.1253 21.4082C21.7974 20.9103 21.7197 20.7734 21.6501 20.5705C21.5316 20.225 21.2638 19.6986 21.0587 19.4142C20.7999 19.0565 20.4801 18.747 20.1138 18.4998C19.8631 18.3326 19.7673 18.2479 19.5322 17.9859C18.1767 16.4747 16.7768 15.448 14.8533 14.5543C14.0256 14.1698 12.8264 13.719 12.0062 13.484C11.8427 13.4371 11.6986 13.3899 11.6858 13.3802C11.673 13.3706 11.6971 13.2566 11.7427 13.1194C11.7867 12.9869 11.8475 12.7401 11.8764 12.5702C11.9054 12.4004 11.9392 12.2546 11.9487 12.2442C11.9687 12.2257 12.9446 12.3145 13.9654 12.4275C16.6401 12.7242 18.4996 13.1092 19.4162 13.553C19.9068 13.7913 19.8649 13.727 20.4663 15.1598L23.4605 22.2865L26.1355 28.7075C26.1303 28.7125 26.035 28.5225 25.9236 28.2854L25.9231 28.2857ZM26.3799 28.223L20.4493 13.7818L20.4635 13.601C20.5189 12.8915 21.3515 11.4609 22.8563 9.48958C23.503 8.6424 24.8534 6.99071 24.9143 6.97041C24.9286 6.96597 25.0448 7.03739 25.1729 7.12897C25.301 7.22055 25.5188 7.35421 25.6573 7.42534C25.7958 7.49647 25.9093 7.56642 25.9093 7.57798C25.9093 7.58953 25.8567 7.69356 25.7925 7.80944C25.0273 9.18758 24.3452 10.8851 23.999 12.2699C23.6777 13.554 23.5988 14.2945 23.6126 15.8933C23.6211 16.8779 23.6181 16.965 23.5701 17.1677C23.5279 17.3467 23.5187 17.474 23.5196 17.8636C23.5207 18.2933 23.5285 18.3719 23.593 18.649C23.6822 19.0224 23.7767 19.2988 23.9489 19.6715C24.0589 19.9107 24.0945 20.0301 24.1777 20.4361C24.6384 22.6875 25.3713 25.2477 26.326 27.9264C26.4518 28.2796 26.5507 28.5732 26.5452 28.5784C26.5397 28.5836 26.4654 28.4222 26.3796 28.2195L26.3799 28.223ZM10.3632 13.0557C8.70365 12.6781 6.51663 12.4108 4.46393 12.3346C4.18339 12.3242 4.00032 12.3076 4.01443 12.2939C4.04772 12.2607 4.31727 12.2011 4.69128 12.1457C5.5937 12.0086 7.03671 11.9474 8.36961 11.9893C9.20233 12.0156 10.2517 12.0748 10.5985 12.115L10.7537 12.1331L10.8018 12.2749C10.836 12.3757 10.8538 12.5228 10.8635 12.7839L10.8783 13.1514L10.8167 13.1485C10.7825 13.147 10.5789 13.1058 10.3673 13.0573L10.3632 13.0557ZM18.3412 35.6998C18.1243 35.6998 17.8825 35.7146 17.7167 35.749C17.132 35.8655 16.5249 36.0879 16.0801 36.3482C15.0197 36.9706 14.0587 38.1705 13.658 39.3784C13.2431 40.6231 13.5022 41.6344 14.3901 42.2339C14.7108 42.4506 15.2292 42.6434 15.6725 42.7108C16.3388 42.8123 17.0886 42.698 17.6684 42.407C18.4601 42.0094 19.0875 41.3522 19.511 40.4776C19.7874 39.9064 19.9226 39.3948 19.9787 38.7043C20.0253 38.1346 19.9407 37.421 19.7822 37.0455C19.6261 36.6762 19.3494 36.5124 19.0095 36.5883C18.6503 36.6683 17.9136 37.1766 17.7947 37.4265C17.7687 37.4899 17.7548 37.5577 17.7537 37.6262C17.7541 37.7413 17.765 37.764 18.0607 38.2827C18.4925 39.0384 18.5337 39.7282 18.1935 40.5099C17.9194 41.1402 17.3985 41.677 16.9275 41.8148C16.6214 41.9044 16.2609 41.807 16.024 41.5708C15.7491 41.2966 15.6035 40.8599 15.5571 40.1704C15.5075 39.4351 15.6044 38.8901 15.8945 38.2736C16.0752 37.8886 16.2288 37.6742 16.564 37.3392C17.0122 36.8911 17.2137 36.775 17.8825 36.5796C18.2651 36.4678 18.4451 36.3837 18.6571 36.2175C18.8295 36.0842 18.9164 35.9656 18.9164 35.8646C18.9164 35.8154 18.8931 35.7881 18.8196 35.7515C18.7527 35.7183 18.5603 35.7016 18.3433 35.7014L18.3412 35.6998ZM32.0655 35.6998C31.8485 35.6998 31.6067 35.7146 31.4409 35.749C30.8562 35.8655 30.2489 36.0879 29.8041 36.3482C28.7438 36.9706 27.7828 38.1705 27.382 39.3784C26.9672 40.6231 27.2263 41.6344 28.1142 42.2339C28.4348 42.4506 28.9534 42.6434 29.3965 42.7108C30.0628 42.8123 30.8127 42.698 31.3922 42.407C32.1839 42.0094 32.8113 41.3522 33.2348 40.4776C33.5111 39.9064 33.6464 39.3948 33.7025 38.7043C33.749 38.1346 33.6645 37.421 33.5059 37.0455C33.3499 36.6762 33.075 36.5124 32.7332 36.5883C32.3741 36.6683 31.6372 37.1766 31.5185 37.4265C31.4956 37.4746 31.4769 37.5646 31.4773 37.6262C31.4778 37.7413 31.4886 37.764 31.7843 38.2827C32.2161 39.0384 32.2573 39.7282 31.9172 40.5099C31.643 41.1402 31.1222 41.677 30.6511 41.8148C30.345 41.9044 29.9844 41.807 29.7477 41.5708C29.4728 41.2966 29.3272 40.8599 29.2808 40.1704C29.2312 39.4351 29.3283 38.8901 29.6181 38.2736C29.7988 37.8886 29.9524 37.6742 30.2875 37.3392C30.7357 36.8911 30.9372 36.775 31.606 36.5796C31.9886 36.4678 32.1686 36.3837 32.3806 36.2175C32.553 36.0842 32.6398 35.9656 32.6398 35.8646C32.6398 35.8154 32.6165 35.7881 32.5429 35.7515C32.476 35.7183 32.2836 35.7016 32.0667 35.7014L32.0655 35.6998ZM10.1719 35.702C9.81529 35.7024 9.44707 35.7168 9.23502 35.7491C8.52221 35.8538 8.17732 35.9803 7.96038 36.2171C7.77315 36.4216 7.70687 36.6417 7.78652 36.7955C7.85591 36.9294 7.93957 36.9318 8.27659 36.8103C8.41389 36.7608 8.59161 36.7125 8.67185 36.7032C8.80811 36.6872 8.81599 36.6892 8.79667 36.7353C8.71345 36.9342 7.67255 39.9515 7.47714 40.5604C6.95008 42.2035 6.91352 42.4946 7.21473 42.6499C7.36332 42.7249 7.60702 42.7074 7.93199 42.5988C8.52013 42.4023 8.86517 42.129 9.07588 41.693C9.21704 41.4011 9.33443 41.0538 9.49402 40.4561C9.55985 40.2094 9.81707 39.3755 10.0655 38.6029L10.5437 37.1144C10.5583 37.0699 10.5853 37.0305 10.6036 37.0305C10.666 37.0305 10.9672 37.3561 11.0523 37.5155C11.2559 37.8968 11.266 38.539 11.0752 39.0073C10.9534 39.3061 10.7046 39.6045 10.422 39.7927L10.0945 40.0068C9.85883 40.1602 9.75273 40.2715 9.71409 40.4049C9.67992 40.5238 9.7086 40.5856 9.82613 40.6457C10.1917 40.8318 11.0229 40.6338 11.691 40.2011C12.2964 39.8091 12.8668 38.9314 13.0358 38.1324C13.0848 37.9008 13.0833 37.4708 13.0333 37.2759C12.9477 36.944 12.7089 36.5527 12.4739 36.3605C12.0757 36.0345 11.6567 35.8545 11.0571 35.7506C10.8792 35.7198 10.5296 35.7062 10.1715 35.705L10.1719 35.702ZM37.5752 35.7035C37.1107 35.702 36.9288 35.7278 36.5579 35.8475C35.8652 36.0698 35.3031 36.5327 35.0081 37.1197C34.8714 37.3924 34.8261 37.5905 34.8256 37.9187C34.8256 38.1621 34.8354 38.2299 34.8969 38.4085C35.0411 38.8234 35.3487 39.1962 36.0233 39.7745C36.2584 39.976 36.4952 40.1898 36.5496 40.2487C36.6923 40.406 36.8914 40.7193 36.9526 40.882C37.1636 41.4448 36.9921 41.9512 36.59 41.9512C36.4087 41.9512 36.1673 41.7443 36.0283 41.4702C35.9864 41.3875 35.8986 41.1516 35.8332 40.946C35.6998 40.5267 35.6482 40.4269 35.5267 40.353C35.4138 40.2844 35.2686 40.2878 35.0237 40.3654C34.6275 40.4908 34.2394 40.7737 34.1321 41.0154C33.9731 41.374 34.3231 41.8947 35.0408 42.3683C35.3756 42.5906 35.754 42.7447 36.1359 42.817C36.3689 42.8612 36.859 42.8474 37.0721 42.7904C37.7234 42.6155 38.3648 42.0534 38.6638 41.3962C38.808 41.0794 38.853 40.8638 38.8521 40.4952C38.8517 40.2015 38.8426 40.134 38.7811 39.9476C38.6507 39.5522 38.4075 39.2511 37.6666 38.562C37.4685 38.3778 37.2571 38.1601 37.1966 38.0782C36.9221 37.7077 36.8822 37.248 37.0886 36.8361C37.1529 36.7076 37.3378 36.513 37.3956 36.513C37.5144 36.513 37.699 36.754 37.8069 37.0495C37.9223 37.3658 37.9451 37.5761 37.9079 37.9881C37.8675 38.4371 37.8819 38.4845 38.0535 38.4652C38.2111 38.4475 38.4186 38.3174 38.6598 38.0851C39.0999 37.6613 39.2998 37.1856 39.2289 36.7303C39.1523 36.2373 38.8081 35.904 38.2264 35.7597C38.0421 35.714 37.922 35.7033 37.5725 35.7022L37.5752 35.7035ZM23.5623 35.8991C22.7041 35.8909 21.8088 36.0362 21.4992 36.2404C21.2947 36.3737 21.17 36.7823 21.2885 36.928C21.3528 37.0071 21.5697 37.0221 21.8585 36.9671C21.9779 36.9444 22.0814 36.9311 22.0878 36.9374C22.0941 36.9438 21.96 37.3008 21.7888 37.7302C21.1558 39.3203 20.6229 40.8949 20.4385 41.7202C20.3018 42.3322 20.4037 42.6162 20.7696 42.6426C21.0213 42.6609 21.5274 42.4678 21.877 42.2206C22.1668 42.0158 22.3288 41.7015 22.6474 40.7278C22.8845 40.0027 23.3744 38.4069 23.6727 37.3817L23.8599 36.7418L23.9516 36.7584C24.2407 36.8103 24.5697 37.0518 24.6742 37.2883C24.8989 37.7966 24.7009 38.6523 24.2459 39.1425C24.0446 39.3594 23.7924 39.5426 23.5649 39.6335C23.2092 39.7779 23.1833 39.7921 23.1544 39.8554C23.1385 39.8901 23.1255 39.9573 23.1255 40.0036C23.1255 40.2461 23.5371 41.1619 23.8783 41.679C24.2357 42.2203 24.6654 42.5521 25.2191 42.7143C25.2889 42.7348 25.416 42.7446 25.5371 42.7385C25.7664 42.7272 25.9383 42.6585 26.1172 42.5044C26.2338 42.4048 26.4798 42.053 26.5481 41.8879C26.6131 41.7311 26.7205 41.2977 26.6987 41.2797C26.688 41.2709 26.5688 41.2193 26.4337 41.1649C26.091 41.0271 25.8118 40.8859 25.5549 40.72C25.3148 40.565 24.9546 40.2162 24.865 40.0532L24.8082 39.9495L25.0689 39.8626C25.8089 39.6162 26.3682 39.0532 26.537 38.3846C26.6 38.1351 26.6053 37.7494 26.5489 37.533C26.4148 37.0195 25.9047 36.5001 25.2641 36.2248C24.7763 36.0151 24.3388 35.9231 23.7306 35.9024L23.5597 35.8987L23.5623 35.8991Z" fill="#1A1A1A"/>
</g>
<defs>
<clipPath id="clip0_1988_383">
<rect width="40" height="42.3443" fill="white" transform="translate(0.666016 0.5)"/>
</clipPath>
</defs>
</svg>
