<svg xmlns="http://www.w3.org/2000/svg" width="281" height="297" fill="none"><g clip-path="url(#clip0_266_461)" filter="url(#filter0_d_266_461)"><path fill="#28AA49" d="M166.4 221.7a51.7 51.7 0 0 1-7-15.1c-1-3.1-1.3-3.7-1.6-3.8-.2 0-5 2-10.6 4.7l-13.3 6a64.7 64.7 0 0 1-35.6 4.6l.6-.3c2.4-.5 8.1-2.8 11.3-4.6a74.6 74.6 0 0 0 33.9-39.3 75.6 75.6 0 0 0 5-19.5 63 63 0 0 0-.2-11.6 36 36 0 0 0-3.5-10c-2-4.1-5-7.5-8.5-9.8l-2.3-1.6a53.3 53.3 0 0 0-25.3-5c-8.1 0-16.7.5-33.4 2.1a122.3 122.3 0 0 1-36 .1 28.8 28.8 0 0 1-13.4-6.8C19.6 105 19 94 25 82.8c.9-1.6 1.1-2 1.6-2.2 3.7-1.6 17.5-2.6 30-2.2 5.8.2 13 .6 15.3.9l1 .1.4 1c.2.6.3 1.7.4 3.2 0 2 0 2.5-.3 3.9-.7 2.8-1.9 4.7-4.1 6.5-3.2 2.5-6.8 3.3-10.1 2.2-1.6-.5-2.4-1.3-3.3-3-1.6-3.4-1.6-5.8 0-7l.4-.7c0-1-8.5 2.1-10.7 4-.4.4-1 1-1 1.3-.5.8-.9 2.8-.9 4.4 0 4.3 2.4 7.5 6.2 8.4 4.2 1.1 10.1 0 16.2-3a27 27 0 0 0 11.7-10c1.3-2.2 2.2-5 2.8-8.2l.5-2.2c.2-.2 6.8.4 13.8 1.2 18.2 2 31 4.7 37.2 7.7 3.3 1.6 3 1.2 7.2 11l20.8 49.6 17.8 42.5 3.2 7.8c6.6 15.7 6.3 14.8 6 15-.5.4-5.8 3-8.2 4.2-5 2.2-8.8 3.5-10.6 3.5-.7 0-.8 0-1.8-1Zm-85-3c-7.5-.8-14-3-19-6.4-3.5-2.3-6-4.8-8.4-8.3-3-4.4-4.2-8.2-4.3-13.2 0-2.3.4-5.7.6-5.9l1.6 2A81.6 81.6 0 0 0 95 218a55.4 55.4 0 0 1-13.6.6Zm108.5-4.6-2.6-6.2-7.3-17.5-39.5-96c-1.5-3.7-1.5-3.8-1.4-5 .4-4.8 6-14.6 16.3-28 4.5-5.8 13.7-17.1 14-17.2.2 0 1 .4 1.8 1 2 1.4 5.1 3.1 6.7 3.6 3.8 1.3 8.4 1.4 12.8.4a32.4 32.4 0 0 0 15.9-8.3c3-3.3 3.6-6.7 1.8-10.2-1-1.9-3.2-3.8-5.2-4.7-1.1-.5-2.5-.4-5 .4-3.2 1.1-7.5 3.3-7.5 3.9 0 .2.4.2 1.3.3 1 0 1.3.2 1.8.6 1.5 1.1 3.1 4.6 3.1 6.7 0 1.5-.7 2.9-2.4 4.5a9.6 9.6 0 0 1-4.8 2.8c-5.7 1.5-10.4-.5-13.9-5.9l-.8-1.5c0-.4 5.6-6.5 10.8-12.1 8-8.4 15.8-15.3 21.3-18.9l1.7-1 1.1.3c7 2 13.2 5.9 16.7 10.5a22 22 0 0 1 3.2 6.6c.6 2.2.8 5.7.4 8-.8 4.7-3 9.4-6.2 13.7-2 2.7-3.7 4.6-7.1 8-5 5-7.7 7.5-19.9 17.5-16.9 14-24 20.7-28.8 27a49.5 49.5 0 0 0-7.2 13.2 28 28 0 0 0 .5 16.9 46 46 0 0 0 3.6 7.6 60.3 60.3 0 0 0 28.6 20.8c13.3 5.2 26.1 7 39 5.2a63 63 0 0 0 22.4-7.2l-1.2 1.8a61.4 61.4 0 0 1-23 18l-3 1.4c-.6.4-.3.9 2 3 5.7 5.7 9.3 7.6 13.8 7.6 8.2 0 17.4-6.7 28.5-20.6l2.3-3 .6.3c.3.2.6.3.5.4l-1 2.2a75.6 75.6 0 0 1-9.7 12.5c-3 3.3-8.6 9-11.1 11.3a40.3 40.3 0 0 1-13.2 8.7 14 14 0 0 1-6.3.3c-1.4-.4-3.2-1.3-4.2-2.2-2.2-1.8-4.5-6-6.7-12.4a17.8 17.8 0 0 0-2.2-5.1c-.2-.1-2.6.7-9.5 3.2l-9.5 3.5c-.4.2-.2.7 1.5 4.2 3.8 7.5 5.7 13 5.7 15.6 0 1 0 1.2-.5 1.7a54.5 54.5 0 0 1-19 7.8Zm-98.7-2.8L89 211a28.4 28.4 0 0 1-22.6-15.6 34.7 34.7 0 0 1-4.2-25.2A23.3 23.3 0 0 1 84 154.5c6.5 0 11.6 2.6 14.7 7.3.4.7.5 1 .4 1.5-.3 1.6-3.6 5.1-11.7 12.5-8.2 7.5-10.2 9.5-10.2 10.5 0 .5 1 2 2 2.8 2.2 1.8 5.8 2.5 9 1.8a29 29 0 0 0 11.8-7.6c6.5-6.5 10.3-15.7 9.4-22.6a16 16 0 0 0-17-14.3c-4 0-7.2.6-11.7 2.2A47.6 47.6 0 0 0 54 172.8a59.5 59.5 0 0 0-4.1 10.5c-.3 0-4.5-6.6-6.4-10a293.8 293.8 0 0 1-17.2-36.4s1.2 0 2.6.3a68.7 68.7 0 0 0 21.7-.7c5.3-.7 13.4-2.1 20.8-3.6 22.5-4.4 32.4-5.8 39.8-5.5 6.4.2 12.1 1.3 15.8 3.2a22 22 0 0 1 10.2 11c6.3 13 5.8 26-1.3 39.6A60 60 0 0 1 98.4 211c-1.5.2-6.2.5-7.2.3Zm124-54.4a50.6 50.6 0 0 1-34.2-15.8 44.3 44.3 0 0 1-9-18.4 25 25 0 0 1 0-7.7c.6-3.2 2-6 4.2-9.4 5.6-8.3 12.3-13.9 34.5-28.8 14-9.5 22.1-15.3 27.3-19.7a62.6 62.6 0 0 0 10.3-11.3A276.3 276.3 0 0 1 263 87.2c1 3.6 1.8 7.9 1.6 8l-.9-.4c-3.6-2.2-11-5-16.2-6-5-1-10.5-1.2-15-.6-5.6.7-13 3.3-17.8 6-5 3-9 7.3-10.6 11.1-1.6 3.8-1.5 8 .2 12 2.5 5.8 8.3 10 16.7 12.2 3.2.8 5.8 1 9.4 1 4.8-.2 8.7-1 11.6-2.4 3-1.5 5.4-4.5 6-7.4.2-1 .2-3.2 0-3.8-.5-1-3.4-1.2-12.8-.7-8.7.4-16.3.4-18 0l-1.7-.6c-.8-.9-1-5.1-.6-7.5a20.4 20.4 0 0 1 10.4-13 24.5 24.5 0 0 1 16.7-2.2c8 2 15 9.5 19 20.4 1.7 4.8 2.3 8.1 2.1 12.2-.2 4-1 7.1-2.8 11a32.8 32.8 0 0 1-20.2 17.4 71.1 71.1 0 0 1-24.8 3Zm42.2-5.4.8-1.5a68.8 68.8 0 0 0 8.5-35.8 88.1 88.1 0 0 0-1.3-17.6 23.3 23.3 0 0 1 11.4 18c1.3 10.4-3.1 21.7-12.3 31-2.6 2.7-7 6.4-7 6Zm-234.3-16a25.6 25.6 0 0 1-18.5-20c-.1-.9-.3-1.3-.3-1.2l-.3-1.5c0-1.8 0-5.3.3-5A41.2 41.2 0 0 1 8.5 95 71.9 71.9 0 0 1 39 64.5 52.3 52.3 0 0 1 57 58c2.6-.3 7.1-.3 9.2 0 6 1 9.7 4 12.1 9.7 1 2.2 1.6 4.4 2 6.6.2 1.7.3 5 0 5.1-.2.2-7-.5-7.2-.7l-.7-1.7c-.7-2-2.3-5.1-3.2-6.4-.9-1.3-3-3.3-4.3-4.1a20.4 20.4 0 0 0-11.4-2.7c-4 0-5.7.3-9 1.4-7 2.4-14.3 8.1-18 14-.7 1-.8 1-2.3 1.5-2.5.7-4.7 1.9-6 3-5.2 4.9-4.2 18.9 3 40.4l2.6 7.6c1.6 4.3 1.6 4.1 1.3 4.1l-2-.5Zm224.6-92.6c-3.7-8.3-8.5-17.5-12.5-23.9a45 45 0 0 0-14.3-15.4c-3.3-1.7-5.8-1.5-10.3.7l-2 1-2-.4a48 48 0 0 0-10.8-.2 31.1 31.1 0 0 0-18.4 8.5A20.2 20.2 0 0 0 171 25c-.4 3 .3 6.2 2.5 11.2.7 1.7.7 1.7.4 2l-2.4 2.9-2 2.4-.6-.5c-2-1.7-4.6-5.3-6-8.7a17.2 17.2 0 0 1-1.7-7c0-3.2.8-5.6 2.8-8.6a42.2 42.2 0 0 1 22.4-14.8A87.8 87.8 0 0 1 214.8.3c1.6 0 5.6.6 8.4 1 15.3 3 25 10 28.5 20.1 1 3.2 1.4 5.2 1.4 8.5a22 22 0 0 1-2.1 10c-.7 1.4-2.4 4.4-2.6 4.4l-.7-1.4Z"/><path fill="#1A1A1A" d="M176.4 189.6c-2.2-4.5-8.8-17.7-11.2-22.2-4.9-9-9.8-17.1-14.7-24.7a24.4 24.4 0 0 1-3.3-5.7 25.7 25.7 0 0 0-10.5-14.1 16.9 16.9 0 0 1-4-3.6A92.9 92.9 0 0 0 100.9 96a153.4 153.4 0 0 0-21.6-8s0-.8.4-1.8l1-3.7c.1-1.2.3-2.2.4-2.2.1-.2 6.8.4 13.8 1.2 18.2 2 31 4.7 37.2 7.7 3.3 1.6 3 1.2 7.1 11l20.5 48.6 18.2 43.8s-.7-1.2-1.4-2.9Zm3-.4L139 90.6l.1-1.2c.4-4.8 6-14.6 16.3-28 4.5-5.8 13.7-17.1 14-17.2.2 0 1 .4 1.9 1 .8.7 2.3 1.6 3.3 2l1.7 1.1-.8 1.6c-5.2 9.4-9.9 21-12.3 30.4a82.6 82.6 0 0 0-2.6 24.8c0 6.7 0 7.3-.3 8.7-.3 1.2-.3 2-.3 4.7 0 3 0 3.5.5 5.4.6 2.5 1.2 4.4 2.4 7 .8 1.6 1 2.4 1.6 5.2a386 386 0 0 0 16.1 55.5l-1.1-2.4ZM70.3 85.7a231.6 231.6 0 0 0-43.4-5.2c.3-.2 2.1-.6 4.7-1 6.1-1 16-1.4 25-1 5.8 0 13 .5 15.3.8l1 .1.4 1c.2.7.3 1.7.4 3.4v2.5h-.3l-3-.6h-.1Zm54.4 154.5a38 38 0 0 0-15.4 4.4 40 40 0 0 0-16.5 20.7c-2.9 8.5-1.1 15.4 5 19.5 2.1 1.5 5.7 2.8 8.7 3.3 4.6.7 9.7-.1 13.6-2a28 28 0 0 0 12.6-13.3 31.7 31.7 0 0 0 1.9-23.4c-1.1-2.5-3-3.6-5.3-3.1-2.5.5-7.5 4-8.3 5.7l-.3 1.4c0 .8 0 1 2.1 4.5 3 5.1 3.2 9.8 1 15.2-2 4.3-5.5 8-8.7 8.9-2.1.6-4.6 0-6.2-1.7-1.9-1.9-2.9-4.8-3.2-9.5a24.2 24.2 0 0 1 6.9-19.4c3-3 4.4-3.8 9-5.2 2.6-.7 3.8-1.3 5.3-2.4 1.2-1 1.8-1.7 1.8-2.4 0-.4-.2-.6-.7-.8-.5-.2-1.8-.3-3.3-.3Zm93.7 0a37.9 37.9 0 0 0-15.4 4.4 40 40 0 0 0-16.6 20.7c-2.8 8.5-1 15.4 5 19.5 2.2 1.5 5.8 2.8 8.8 3.3 4.5.7 9.6-.1 13.6-2a28 28 0 0 0 12.6-13.3 31.7 31.7 0 0 0 1.8-23.4c-1-2.5-3-3.6-5.2-3.1-2.5.5-7.5 4-8.3 5.7-.2.4-.3 1-.3 1.4 0 .8 0 1 2 4.5 3 5.1 3.3 9.8 1 15.2-1.9 4.3-5.4 8-8.7 8.9-2 .6-4.5 0-6.1-1.7-1.9-1.9-2.9-4.8-3.2-9.5a24.2 24.2 0 0 1 6.9-19.4c3-3 4.4-3.8 9-5.2 2.6-.7 3.8-1.3 5.2-2.4 1.2-1 1.8-1.7 1.8-2.4 0-.4-.1-.6-.6-.8-.5-.2-1.8-.3-3.3-.3Zm-149.4 0c-2.5 0-5 .2-6.4.4-4.9.7-7.2 1.6-8.7 3.2-1.3 1.4-1.8 2.9-1.2 4 .5.8 1 .8 3.3 0l2.7-.7c1-.1 1-.1.9.2-.6 1.4-7.7 22-9 26.1-3.6 11.2-3.9 13.2-1.8 14.3 1 .5 2.7.4 4.9-.4 4-1.3 6.4-3.2 7.8-6.2 1-2 1.8-4.3 2.8-8.4l4-12.6 3.2-10.2.4-.6c.4 0 2.5 2.2 3 3.3 1.5 2.6 1.5 7 .2 10.2-.8 2-2.5 4-4.4 5.4l-2.3 1.4c-1.6 1-2.3 1.8-2.6 2.8-.2.8 0 1.2.8 1.6 2.5 1.3 8.2 0 12.7-3 4.2-2.7 8-8.7 9.2-14.2a17 17 0 0 0 0-5.8c-.6-2.3-2.2-5-3.8-6.3a19.4 19.4 0 0 0-9.7-4.1c-1.2-.2-3.6-.3-6-.3Zm187 0c-3.2 0-4.4.2-7 1a17.8 17.8 0 0 0-10.5 8.7c-1 1.9-1.3 3.2-1.3 5.5a8 8 0 0 0 .5 3.3c1 2.9 3.1 5.4 7.7 9.3l3.6 3.3c1 1 2.3 3.2 2.8 4.3 1.4 3.8.2 7.3-2.5 7.3-1.3 0-3-1.4-3.9-3.3L244 276c-.9-2.8-1.3-3.5-2-4-.9-.5-1.8-.4-3.5 0-2.7 1-5.4 2.9-6.1 4.5-1 2.5 1.3 6 6.2 9.3 2.3 1.5 4.9 2.5 7.5 3 1.6.3 5 .2 6.4-.2 4.4-1.2 8.8-5 10.8-9.5 1-2.1 1.3-3.6 1.3-6.1 0-2 0-2.5-.5-3.8-.9-2.7-2.5-4.7-7.6-9.4a36.5 36.5 0 0 1-3.2-3.3 8 8 0 0 1-.7-8.5c.4-.9 1.7-2.2 2-2.2.9 0 2.1 1.6 2.9 3.7.8 2.1 1 3.5.7 6.4-.3 3-.2 3.3 1 3.2 1-.1 2.5-1 4.1-2.6 3-2.9 4.4-6.1 3.9-9.2-.5-3.4-2.9-5.7-6.9-6.7-1.2-.3-2-.3-4.4-.3Zm-95.6 1.4c-5.9 0-12 1-14.1 2.3-1.4 1-2.3 3.7-1.5 4.7.5.6 2 .7 4 .3.7-.2 1.5-.3 1.5-.2l-2 5.4c-4.4 10.8-8 21.6-9.3 27.2-.9 4.2-.2 6.1 2.3 6.3a15 15 0 0 0 7.6-2.9c2-1.4 3-3.5 5.2-10.1 1.6-5 5-15.9 7-22.9l1.3-4.3h.6c2 .4 4.2 2 5 3.7 1.5 3.5.1 9.3-3 12.6-1.3 1.5-3 2.8-4.6 3.4-2.4 1-2.6 1-2.8 1.5a3 3 0 0 0-.2 1c0 1.7 2.8 8 5.1 11.4a16 16 0 0 0 9.2 7.1c.4.2 1.3.2 2.1.2a6 6 0 0 0 4-1.6c.8-.7 2.5-3.1 3-4.2.4-1.1 1.1-4 1-4.2l-1.8-.8c-2.4-.9-4.3-1.9-6-3a19 19 0 0 1-4.7-4.5l-.4-.8 1.7-.5a15 15 0 0 0 10-10.1 14 14 0 0 0 .1-5.8c-.9-3.6-4.4-7.1-8.7-9-3.4-1.4-6.3-2-10.5-2.2h-1.2Z"/></g><defs><clipPath id="clip0_266_461"><path fill="#fff" d="M4 0h273v289H4z"/></clipPath><filter id="filter0_d_266_461" width="281" height="297" x="0" y="0" color-interpolation-filters="sRGB" filterUnits="userSpaceOnUse"><feFlood flood-opacity="0" result="BackgroundImageFix"/><feColorMatrix in="SourceAlpha" result="hardAlpha" values="0 0 0 0 0 0 0 0 0 0 0 0 0 0 0 0 0 0 127 0"/><feOffset dy="4"/><feGaussianBlur stdDeviation="2"/><feComposite in2="hardAlpha" operator="out"/><feColorMatrix values="0 0 0 0 1 0 0 0 0 0.839216 0 0 0 0 0.2 0 0 0 1 0"/><feBlend in2="BackgroundImageFix" result="effect1_dropShadow_266_461"/><feBlend in="SourceGraphic" in2="effect1_dropShadow_266_461" result="shape"/></filter></defs></svg>