<svg width="145" height="145" viewBox="0 0 145 145" fill="none" xmlns="http://www.w3.org/2000/svg">
<g filter="url(#filter0_d_2020_347)">
<circle cx="72.5" cy="68.5" r="68.5" fill="#FAFAFA"/>
</g>
<path d="M34 46C34 40.4771 38.4772 36 44 36H100.71C106.233 36 110.71 40.4772 110.71 46V47.6227H34V46Z" fill="#29AC4A"/>
<rect x="52.5967" y="40.6492" width="7.74847" height="3.09939" rx="1.54969" fill="#FAFAFA"/>
<rect x="40.9736" y="40.6492" width="7.74847" height="3.09939" rx="1.54969" fill="#FAFAFA"/>
<rect x="64.9941" y="40.6492" width="8.52332" height="3.09939" rx="1.54969" fill="#FAFAFA"/>
<rect x="34" y="49.9473" width="76.7099" height="48.8154" fill="#29AC4A"/>
<path d="M122.992 88.8339C122.879 89.4829 122.368 89.9852 121.726 90.1234L117.675 91.0214C117.447 91.5716 117.181 92.1165 116.875 92.6463C116.569 93.1762 116.23 93.6787 115.868 94.1512L117.116 98.1082C117.317 98.734 117.137 99.427 116.632 99.8499C115.94 100.428 115.21 100.943 114.445 101.405L113.87 101.738C113.075 102.183 112.252 102.562 111.408 102.88C110.791 103.115 110.106 102.917 109.667 102.433L106.888 99.3751C105.702 99.5364 104.491 99.5434 103.293 99.3858L100.497 102.462C100.051 102.952 99.3665 103.149 98.7503 102.916C97.8241 102.57 96.9126 102.143 96.0255 101.63C95.1383 101.118 94.3122 100.543 93.5497 99.9135C93.0401 99.4961 92.868 98.8052 93.0693 98.1739L94.3356 94.2143C93.6001 93.2557 93.0005 92.2031 92.5471 91.0951L88.5121 90.2278C87.8741 90.0894 87.3634 89.5892 87.255 88.9434C87.108 88.0535 87.0252 87.1513 87.0126 86.2404L87.0132 85.5754C87.0313 84.6822 87.1125 83.7926 87.2666 82.904C87.3803 82.2549 87.8905 81.7527 88.5332 81.6144L92.584 80.7165C92.8155 80.1601 93.0811 79.6152 93.387 79.0853C93.6929 78.5555 94.032 78.053 94.3946 77.5805L93.1468 73.6235C92.9452 72.9977 93.125 72.3047 93.6303 71.8817C94.3228 71.304 95.0526 70.7888 95.8171 70.3266L96.3928 69.9936C97.1879 69.549 98.0106 69.1696 98.8547 68.852C99.4718 68.6168 100.157 68.8151 100.596 69.2985L103.374 72.3565C104.56 72.1953 105.772 72.1882 106.97 72.3459L109.765 69.2694C110.211 68.7794 110.896 68.5831 111.512 68.8157C112.442 69.1553 113.353 69.583 114.24 70.0952C115.128 70.6074 115.954 71.1829 116.716 71.8121C117.226 72.2295 117.398 72.9203 117.197 73.5517L115.93 77.5112C116.666 78.4698 117.265 79.5225 117.719 80.6304L121.756 81.5074C122.394 81.6458 122.905 82.146 123.014 82.7918C123.161 83.6818 123.243 84.5839 123.256 85.4948L123.255 86.1599C123.237 87.0531 123.156 87.9426 123.002 88.8312L122.992 88.8339ZM102.289 90.7965C103.587 91.546 105.132 91.7455 106.583 91.3511C108.035 90.9567 109.274 90.0008 110.029 88.6936C110.784 87.3863 110.992 85.8349 110.608 84.3806C110.223 82.9263 109.278 81.6882 107.98 80.9387C106.682 80.1892 105.137 79.9897 103.685 80.3841C102.234 80.7785 100.994 81.7344 100.24 83.0417C99.4849 84.3489 99.2767 85.9003 99.661 87.3546C100.045 88.8089 100.99 90.047 102.289 90.7965Z" fill="#FFD633"/>
<path d="M51.1032 84.018C50.7034 84.018 50.3271 83.8768 50.0213 83.5708L42.19 75.7106C41.602 75.1223 41.602 74.1574 42.19 73.5455L50.0213 65.7088C50.6093 65.1205 51.597 65.1205 52.185 65.7088C52.7729 66.2972 52.7729 67.2856 52.185 67.8739L45.4354 74.6281L52.185 81.4057C52.7729 81.9941 52.7729 82.9825 52.185 83.5708C51.8792 83.8768 51.4794 84.018 51.1032 84.018Z" fill="#FAFAFA"/>
<path d="M68.973 84.0187C68.5732 84.0187 68.1969 83.8775 67.8912 83.5716C67.3032 82.9832 67.3032 81.9948 67.8912 81.4065L74.6642 74.6288L67.8912 67.8747C67.3032 67.2863 67.3032 66.2979 67.8912 65.7096C68.4791 65.1212 69.4668 65.1212 70.0548 65.7096L77.9097 73.5463C78.1919 73.8287 78.3565 74.2287 78.3565 74.6288C78.3565 75.0289 78.1919 75.4289 77.9097 75.7113L70.0548 83.5716C69.749 83.8775 69.3728 84.0187 68.973 84.0187Z" fill="#FAFAFA"/>
<path d="M55.1176 88.0849C54.9295 88.0849 54.7414 88.0614 54.5532 87.9672C53.7771 87.6613 53.3773 86.767 53.6831 85.9904L64.1249 59.4445C64.4306 58.6679 65.3243 58.2678 66.1004 58.5738C66.8765 58.8797 67.2763 59.774 66.9705 60.5506L56.5287 87.0965C56.2935 87.7084 55.7291 88.0849 55.1176 88.0849Z" fill="#FAFAFA"/>
<defs>
<filter id="filter0_d_2020_347" x="0" y="0" width="145" height="145" filterUnits="userSpaceOnUse" color-interpolation-filters="sRGB">
<feFlood flood-opacity="0" result="BackgroundImageFix"/>
<feColorMatrix in="SourceAlpha" type="matrix" values="0 0 0 0 0 0 0 0 0 0 0 0 0 0 0 0 0 0 127 0" result="hardAlpha"/>
<feOffset dy="4"/>
<feGaussianBlur stdDeviation="2"/>
<feComposite in2="hardAlpha" operator="out"/>
<feColorMatrix type="matrix" values="0 0 0 0 0 0 0 0 0 0 0 0 0 0 0 0 0 0 0.25 0"/>
<feBlend mode="normal" in2="BackgroundImageFix" result="effect1_dropShadow_2020_347"/>
<feBlend mode="normal" in="SourceGraphic" in2="effect1_dropShadow_2020_347" result="shape"/>
</filter>
</defs>
</svg>
