<svg width="145" height="145" viewBox="0 0 145 145" fill="none" xmlns="http://www.w3.org/2000/svg">
<g filter="url(#filter0_d_916_567)">
<circle cx="72.5" cy="68.5" r="68.5" fill="#FAFAFA"/>
</g>
<path d="M93.6364 59.7558C93.3931 59.7558 93.1627 59.6533 92.9962 59.4611L88.809 54.5279C88.5145 54.1819 88.5529 53.6566 88.8986 53.349C89.2444 53.0543 89.7694 53.0928 90.0767 53.4387L93.6364 57.616L97.1834 53.4387C97.4779 53.0928 98.0029 53.0415 98.3614 53.349C98.7072 53.6438 98.7584 54.1691 98.4511 54.5279L94.2639 59.4611C94.123 59.6405 93.8925 59.7558 93.6364 59.7558Z" fill="#FF6464"/>
<path d="M36.7456 65.2949C36.5536 65.2949 36.3615 65.2308 36.2078 65.1027C35.8621 64.808 35.8109 64.2826 36.1054 63.9239L40.2798 58.9906C40.4335 58.7984 40.6639 58.6959 40.92 58.6959C41.1633 58.6959 41.3938 58.7984 41.5603 58.9906L45.7475 63.9239C46.042 64.2698 46.0036 64.7952 45.6578 65.1027C45.3121 65.3974 44.7871 65.359 44.4798 65.013L40.9328 60.8358L37.3859 65.013C37.2194 65.1924 36.9889 65.2949 36.7456 65.2949Z" fill="#FF6464"/>
<path d="M96.4543 66.2323C99.6043 66.6039 102.511 67.7187 104.995 69.4357L108.875 65.5532L112.845 69.5382L109.106 73.2926C110.988 75.6631 112.32 78.5077 112.883 81.6086H118.363V87.2338H113.075C112.717 90.3859 111.577 93.3074 109.861 95.7932L113.741 99.6629L109.759 103.648L106.032 99.9064C103.663 101.803 100.821 103.123 97.722 103.699V109.171H92.0879V103.879C88.9379 103.533 86.0183 102.379 83.547 100.675L79.6671 104.558L75.6976 100.573L79.4366 96.8311C77.5543 94.4606 76.2226 91.616 75.6464 88.5151H70.1787V82.89H75.4671C75.8257 79.7378 76.9653 76.8163 78.6811 74.3433L74.8013 70.4608L78.7708 66.4758L82.5226 70.2302C84.8915 68.3466 87.7214 67.0139 90.833 66.4373V60.9659H96.4543V66.2323Z" fill="#FFD633"/>
<path d="M94.2636 73.2926C100.756 73.2926 106.018 78.559 106.018 85.0427C106.018 91.5391 100.756 96.7927 94.2636 96.7927C87.7715 96.7927 82.5215 91.5391 82.5215 85.0427C82.5215 78.559 87.7715 73.2926 94.2636 73.2926Z" fill="#FAFAFA"/>
<path d="M94.2629 97.6383C87.3226 97.6383 81.6885 91.9875 81.6885 85.0553C81.6885 78.1104 87.3354 72.4724 94.2629 72.4724C101.203 72.4724 106.85 78.1232 106.85 85.0553C106.85 91.9875 101.203 97.6383 94.2629 97.6383ZM94.2629 74.1254C88.2446 74.1254 83.3531 79.0201 83.3531 85.0425C83.3531 91.0649 88.2446 95.9597 94.2629 95.9597C100.281 95.9597 105.185 91.0649 105.185 85.0425C105.185 79.033 100.281 74.1254 94.2629 74.1254Z" fill="#FAFAFA"/>
<path d="M93.5475 58.1727C93.0865 58.1727 92.7152 57.8011 92.7152 57.3398V34.1344H69.4231C68.9622 34.1344 68.5908 33.7628 68.5908 33.3015C68.5908 32.8402 68.9622 32.4686 69.4231 32.4686H93.5475C94.0085 32.4686 94.3798 32.8402 94.3798 33.3015V57.3398C94.3926 57.8011 94.0085 58.1727 93.5475 58.1727Z" fill="#FF6464"/>
<path d="M64.9665 85.9009H40.8421C40.3811 85.9009 40.0098 85.5293 40.0098 85.0681V61.0298C40.0098 60.5685 40.3811 60.1969 40.8421 60.1969C41.3031 60.1969 41.6744 60.5685 41.6744 61.0298V84.2352H64.9665C65.4274 84.2352 65.7988 84.6068 65.7988 85.0681C65.7988 85.5293 65.4274 85.9009 64.9665 85.9009Z" fill="#FF6464"/>
<path d="M28.8613 31.995C28.8613 29.5614 30.8342 27.5885 33.2679 27.5885H58.8258C61.2595 27.5885 63.2324 29.5614 63.2324 31.995H28.8613Z" fill="#29AC4A"/>
<path d="M28.8613 32.8761H63.2324V49.3836C63.2324 50.4882 62.337 51.3836 61.2324 51.3836H30.8613C29.7568 51.3836 28.8613 50.4882 28.8613 49.3836V32.8761Z" fill="#29AC4A"/>
<rect x="35.9121" y="29.3511" width="3.08458" height="1.32196" rx="0.660982" fill="#FAFAFA"/>
<rect x="31.5029" y="29.3511" width="3.08458" height="1.32196" rx="0.660982" fill="#FAFAFA"/>
<rect x="40.7578" y="29.3511" width="3.08458" height="1.32196" rx="0.660982" fill="#FAFAFA"/>
<path d="M42.6841 46.2876C42.5325 46.2876 42.3899 46.2341 42.274 46.1181L39.3049 43.1381C39.082 42.915 39.082 42.5492 39.3049 42.3172L42.274 39.3461C42.4969 39.1231 42.8714 39.1231 43.0943 39.3461C43.3172 39.5692 43.3172 39.9439 43.0943 40.167L40.5353 42.7277L43.0943 45.2973C43.3172 45.5203 43.3172 45.8951 43.0943 46.1181C42.9783 46.2341 42.8268 46.2876 42.6841 46.2876Z" fill="#FAFAFA"/>
<path d="M49.4592 46.2879C49.3076 46.2879 49.1649 46.2344 49.049 46.1184C48.8261 45.8953 48.8261 45.5206 49.049 45.2975L51.6169 42.7279L49.049 40.1672C48.8261 39.9442 48.8261 39.5694 49.049 39.3464C49.2719 39.1233 49.6464 39.1233 49.8693 39.3464L52.8473 42.3175C52.9543 42.4245 53.0167 42.5762 53.0167 42.7279C53.0167 42.8796 52.9543 43.0313 52.8473 43.1383L49.8693 46.1184C49.7534 46.2344 49.6107 46.2879 49.4592 46.2879Z" fill="#FAFAFA"/>
<path d="M44.206 47.8294C44.1347 47.8294 44.0633 47.8205 43.992 47.7848C43.6978 47.6688 43.5462 47.3297 43.6621 47.0353L47.6209 36.971C47.7368 36.6766 48.0756 36.5249 48.3698 36.6409C48.6641 36.7569 48.8157 37.0959 48.6997 37.3904L44.741 47.4547C44.6518 47.6866 44.4378 47.8294 44.206 47.8294Z" fill="#FAFAFA"/>
<defs>
<filter id="filter0_d_916_567" x="0" y="0" width="145" height="145" filterUnits="userSpaceOnUse" color-interpolation-filters="sRGB">
<feFlood flood-opacity="0" result="BackgroundImageFix"/>
<feColorMatrix in="SourceAlpha" type="matrix" values="0 0 0 0 0 0 0 0 0 0 0 0 0 0 0 0 0 0 127 0" result="hardAlpha"/>
<feOffset dy="4"/>
<feGaussianBlur stdDeviation="2"/>
<feComposite in2="hardAlpha" operator="out"/>
<feColorMatrix type="matrix" values="0 0 0 0 0 0 0 0 0 0 0 0 0 0 0 0 0 0 0.25 0"/>
<feBlend mode="normal" in2="BackgroundImageFix" result="effect1_dropShadow_916_567"/>
<feBlend mode="normal" in="SourceGraphic" in2="effect1_dropShadow_916_567" result="shape"/>
</filter>
</defs>
</svg>
