<svg width="145" height="145" viewBox="0 0 145 145" fill="none" xmlns="http://www.w3.org/2000/svg">
<g filter="url(#filter0_d_916_486)">
<path d="M141 68.5C141 106.332 110.332 137 72.5 137C34.6685 137 4 106.332 4 68.5C4 30.6685 34.6685 0 72.5 0C110.332 0 141 30.6685 141 68.5Z" fill="#FAFAFA"/>
<path d="M71.7525 92.8879H60.221C59.7513 92.8879 59.373 92.5095 59.373 92.0398C59.373 91.5701 59.7513 91.1916 60.221 91.1916H70.9046V45.0786H60.221C59.7513 45.0786 59.373 44.7002 59.373 44.2305C59.373 43.7607 59.7513 43.3823 60.221 43.3823H71.7525C72.2222 43.3823 72.6004 43.7607 72.6004 44.2305V92.0398C72.6004 92.5095 72.2222 92.8879 71.7525 92.8879Z" fill="#FFD633"/>
<path d="M60.2068 38.1241H21.3203V50.3374H60.2068V38.1241Z" fill="#29AC4A"/>
<path d="M60.2078 62.0283H21.3213V74.2286H60.2078V62.0283Z" fill="#FFD633"/>
<path d="M60.2078 85.9325H21.3213V98.1458H60.2078V85.9325Z" fill="#29AC4A"/>
<path d="M94.984 70.1314H71.7512C71.2816 70.1314 70.9033 69.7529 70.9033 69.2832C70.9033 68.8135 71.2816 68.4351 71.7512 68.4351H94.997C95.4666 68.4351 95.8449 68.8135 95.8449 69.2832C95.8319 69.7529 95.4536 70.1314 94.984 70.1314Z" fill="#FFD633"/>
<path d="M30.2169 42.0382C31.4431 42.0382 32.4215 43.0168 32.4215 44.2303C32.4215 45.4438 31.4431 46.4355 30.2169 46.4355C29.0037 46.4355 28.0254 45.4438 28.0254 44.2303C28.0254 43.0168 29.0037 42.0382 30.2169 42.0382Z" fill="white"/>
<path d="M40.7678 42.038C41.994 42.038 42.9593 43.0166 42.9593 44.2301C42.9593 45.4436 41.981 46.4353 40.7678 46.4353C39.5547 46.4353 38.5763 45.4436 38.5763 44.2301C38.5633 43.0166 39.5547 42.038 40.7678 42.038Z" fill="white"/>
<path d="M51.3126 42.0383C52.5258 42.0383 53.5172 43.017 53.5172 44.2305C53.5172 45.444 52.5258 46.4356 51.3126 46.4356C50.0995 46.4356 49.1211 45.444 49.1211 44.2305C49.1211 43.017 50.0995 42.0383 51.3126 42.0383Z" fill="white"/>
<path d="M30.2169 65.942C31.4431 65.942 32.4215 66.9206 32.4215 68.1341C32.4215 69.3476 31.4431 70.3263 30.2169 70.3263C29.0037 70.3263 28.0254 69.3476 28.0254 68.1341C28.0254 66.9076 29.0037 65.942 30.2169 65.942Z" fill="white"/>
<path d="M40.7678 65.942C41.994 65.942 42.9593 66.9206 42.9593 68.1341C42.9593 69.3476 41.981 70.3263 40.7678 70.3263C39.5547 70.3263 38.5763 69.3476 38.5763 68.1341C38.5633 66.9076 39.5547 65.942 40.7678 65.942Z" fill="white"/>
<path d="M51.3126 65.9421C52.5258 65.9421 53.5172 66.9208 53.5172 68.1343C53.5172 69.3478 52.5258 70.3264 51.3126 70.3264C50.0995 70.3264 49.1211 69.3478 49.1211 68.1343C49.1211 66.9077 50.0995 65.9421 51.3126 65.9421Z" fill="white"/>
<path d="M30.2169 89.8341C31.4431 89.8341 32.4215 90.8258 32.4215 92.0393C32.4215 93.2397 31.4431 94.2314 30.2169 94.2314C29.0037 94.2314 28.0254 93.2528 28.0254 92.0393C28.0254 90.8258 29.0037 89.8341 30.2169 89.8341Z" fill="white"/>
<path d="M40.7678 89.8341C41.994 89.8341 42.9593 90.8258 42.9593 92.0393C42.9593 93.2397 41.981 94.2314 40.7678 94.2314C39.5547 94.2314 38.5763 93.2528 38.5763 92.0393C38.5633 90.8258 39.5547 89.8341 40.7678 89.8341Z" fill="white"/>
<path d="M51.3126 89.8346C52.5258 89.8346 53.5172 90.8263 53.5172 92.0398C53.5172 93.2402 52.5258 94.2319 51.3126 94.2319C50.0995 94.2319 49.1211 93.2533 49.1211 92.0398C49.1211 90.8263 50.0995 89.8346 51.3126 89.8346Z" fill="white"/>
<path d="M118.987 61.1024H98.885C98.4154 61.1024 98.0371 60.724 98.0371 60.2543V54.8783C98.0371 48.863 102.929 43.9829 108.929 43.9829C114.943 43.9829 119.835 48.8761 119.835 54.8783V60.2543C119.835 60.724 119.457 61.1024 118.987 61.1024ZM99.7329 59.4061H118.139V54.8914C118.139 49.8155 114.004 45.6923 108.929 45.6923C103.855 45.6923 99.7329 49.8155 99.7329 54.8914V59.4061Z" fill="#FF6464"/>
<path d="M96.8757 60.2532H120.982C122.013 60.2532 122.861 61.1013 122.861 62.1321V80.961C122.861 82.0048 122.013 82.8399 120.982 82.8399H96.8757C95.8451 82.8399 94.9972 81.9918 94.9972 80.961V62.1321C94.9842 61.0883 95.8321 60.2532 96.8757 60.2532Z" fill="#29AC4A"/>
<path d="M120.981 83.7015H96.8738C95.3737 83.7015 94.1475 82.475 94.1475 80.9744V62.1325C94.1475 60.6189 95.3737 59.4054 96.8738 59.4054H120.981C122.494 59.4054 123.707 60.6319 123.707 62.1325V80.9613C123.72 82.475 122.494 83.7015 120.981 83.7015ZM96.8738 61.1017C96.2998 61.1017 95.8433 61.5714 95.8433 62.1325V80.9613C95.8433 81.5355 96.3129 81.9922 96.8738 81.9922H120.981C121.555 81.9922 122.011 81.5224 122.011 80.9613V62.1325C122.011 61.5584 121.541 61.1017 120.981 61.1017H96.8738Z" fill="#29AC4A"/>
<path d="M108.929 66.5298C110.651 66.5298 112.034 67.9129 112.034 69.6353C112.034 70.6922 111.512 71.6187 110.716 72.1667L111.994 76.564H105.863L107.142 72.1667C106.346 71.6056 105.824 70.6792 105.824 69.6353C105.824 67.926 107.207 66.5298 108.929 66.5298Z" fill="#FFD633"/>
</g>
<defs>
<filter id="filter0_d_916_486" x="0" y="0" width="145" height="145" filterUnits="userSpaceOnUse" color-interpolation-filters="sRGB">
<feFlood flood-opacity="0" result="BackgroundImageFix"/>
<feColorMatrix in="SourceAlpha" type="matrix" values="0 0 0 0 0 0 0 0 0 0 0 0 0 0 0 0 0 0 127 0" result="hardAlpha"/>
<feOffset dy="4"/>
<feGaussianBlur stdDeviation="2"/>
<feComposite in2="hardAlpha" operator="out"/>
<feColorMatrix type="matrix" values="0 0 0 0 0 0 0 0 0 0 0 0 0 0 0 0 0 0 0.25 0"/>
<feBlend mode="normal" in2="BackgroundImageFix" result="effect1_dropShadow_916_486"/>
<feBlend mode="normal" in="SourceGraphic" in2="effect1_dropShadow_916_486" result="shape"/>
</filter>
</defs>
</svg>
