<svg width="145" height="145" viewBox="0 0 145 145" fill="none" xmlns="http://www.w3.org/2000/svg">
<g filter="url(#filter0_d_2020_408)">
<circle cx="72.5" cy="68.5" r="68.5" fill="#FAFAFA"/>
</g>
<path d="M52.1987 53.5219C52.1984 49.9785 53.1142 46.4955 54.857 43.4119C56.5998 40.3283 59.1102 37.7493 62.1437 35.9258C65.1773 34.1023 68.6306 33.0966 72.1674 33.0066C75.7043 32.9166 79.2041 33.7454 82.3262 35.4122C85.4483 37.079 88.0863 39.527 89.9832 42.518C91.8801 45.5089 92.9714 48.9409 93.1508 52.4796C93.3302 56.0184 92.5916 59.5434 91.0068 62.7114C89.4221 65.8793 87.0453 68.5824 84.1078 70.5573C90.1114 72.8031 95.3258 76.7624 99.1061 81.9452C102.886 87.1281 105.067 93.3071 105.377 99.7179C105.402 100.256 105.321 100.793 105.138 101.299C104.956 101.805 104.675 102.271 104.313 102.668C103.951 103.066 103.514 103.388 103.028 103.617C102.541 103.845 102.014 103.975 101.478 104H43.8983C42.815 103.949 41.7963 103.469 41.0661 102.666C40.336 101.863 39.9541 100.803 40.0044 99.7179C40.3138 93.3062 42.4934 87.1259 46.2738 81.942C50.0541 76.7581 55.2691 72.798 61.2735 70.5518C58.4798 68.6789 56.1901 66.1451 54.6073 63.1747C53.0244 60.2042 52.1971 56.8888 52.1987 53.5219Z" fill="#29AC4A"/>
<path d="M106.325 71.4012L115.086 78.4606V41.1466C115.086 40.6117 114.879 40.0987 114.51 39.7204C114.141 39.3421 113.641 39.1296 113.119 39.1296H77.7215C77.2 39.1296 76.6998 39.3421 76.331 39.7204C75.9622 40.0987 75.755 40.6117 75.755 41.1466V69.3842C75.755 69.9191 75.9622 70.4322 76.331 70.8104C76.6998 71.1887 77.2 71.4012 77.7215 71.4012H106.325Z" fill="#FFD633"/>
<rect x="80.8633" y="46.7915" width="27.5827" height="3.57554" rx="1.78777" fill="white"/>
<rect x="80.8633" y="52.4099" width="27.5827" height="3.57554" rx="1.78777" fill="white"/>
<rect x="90.5684" y="58.0288" width="17.8777" height="3.57554" rx="1.78777" fill="white"/>
<defs>
<filter id="filter0_d_2020_408" x="0" y="0" width="145" height="145" filterUnits="userSpaceOnUse" color-interpolation-filters="sRGB">
<feFlood flood-opacity="0" result="BackgroundImageFix"/>
<feColorMatrix in="SourceAlpha" type="matrix" values="0 0 0 0 0 0 0 0 0 0 0 0 0 0 0 0 0 0 127 0" result="hardAlpha"/>
<feOffset dy="4"/>
<feGaussianBlur stdDeviation="2"/>
<feComposite in2="hardAlpha" operator="out"/>
<feColorMatrix type="matrix" values="0 0 0 0 0 0 0 0 0 0 0 0 0 0 0 0 0 0 0.25 0"/>
<feBlend mode="normal" in2="BackgroundImageFix" result="effect1_dropShadow_2020_408"/>
<feBlend mode="normal" in="SourceGraphic" in2="effect1_dropShadow_2020_408" result="shape"/>
</filter>
</defs>
</svg>
