<svg width="145" height="145" viewBox="0 0 145 145" fill="none" xmlns="http://www.w3.org/2000/svg">
<g filter="url(#filter0_d_2020_421)">
<circle cx="72.5" cy="68.5" r="68.5" fill="#FAFAFA"/>
</g>
<circle cx="72.5" cy="67.5" r="39.5" fill="#FFD633"/>
<path d="M78.4787 35.1548C77.1474 33.7051 75.288 32.9067 73.2357 32.9067C71.1724 32.9067 69.3068 33.7003 67.9817 35.141C66.6423 36.5977 65.9896 38.5773 66.1429 40.715C66.4466 44.9324 69.6284 48.3632 73.2357 48.3632C76.843 48.3632 80.0193 44.9331 80.3278 40.7164C80.4831 38.598 79.8264 36.6225 78.4787 35.1548ZM85.276 63.8196H61.1954C60.8802 63.8237 60.5681 63.757 60.2817 63.6241C59.9953 63.4912 59.7419 63.2957 59.5399 63.0516C59.0952 62.5155 58.9159 61.7834 59.0487 61.043C59.6261 57.8123 61.428 55.0984 64.2602 53.1933C66.7763 51.5021 69.9636 50.5712 73.2357 50.5712C76.5078 50.5712 79.695 51.5028 82.2112 53.1933C85.0434 55.0978 86.8453 57.8116 87.4227 61.0423C87.5554 61.7827 87.3762 62.5148 86.9315 63.0509C86.7295 63.2951 86.4761 63.4908 86.1898 63.6238C85.9034 63.7568 85.5912 63.8237 85.276 63.8196Z" fill="#29AC4A"/>
<rect x="72.2539" y="63.8198" width="1.47205" height="15.2112" fill="white"/>
<rect x="91.3916" y="70.1987" width="1.47205" height="36.8012" transform="rotate(90 91.3916 70.1987)" fill="white"/>
<rect x="89.9189" y="71.1799" width="1.47205" height="7.85093" fill="white"/>
<rect x="54.5898" y="71.1799" width="1.47205" height="7.85093" fill="white"/>
<path d="M64.2242 87.3336C64.2241 85.8153 64.6159 84.3229 65.3614 83.0016C66.107 81.6804 67.1809 80.5753 68.4786 79.7939C69.7762 79.0126 71.2535 78.5817 72.7665 78.5431C74.2795 78.5046 75.7767 78.8597 77.1123 79.5739C78.4478 80.2881 79.5763 81.337 80.3878 82.6186C81.1992 83.9002 81.6661 85.3707 81.7428 86.887C81.8196 88.4033 81.5036 89.9137 80.8257 91.2711C80.1477 92.6286 79.131 93.7868 77.8744 94.633C80.4426 95.5953 82.6733 97.2918 84.2904 99.5125C85.9075 101.733 86.8401 104.381 86.9729 107.128C86.9836 107.358 86.9489 107.588 86.8708 107.805C86.7927 108.022 86.6728 108.222 86.5179 108.392C86.363 108.562 86.1761 108.7 85.968 108.798C85.7598 108.896 85.5345 108.952 85.3049 108.963H60.6735C60.2101 108.941 59.7743 108.735 59.4619 108.391C59.1496 108.047 58.9862 107.593 59.0077 107.128C59.1401 104.381 60.0725 101.732 61.6897 99.5111C63.3068 97.2899 65.5377 95.5931 68.1063 94.6306C66.9112 93.8281 65.9317 92.7424 65.2546 91.4696C64.5775 90.1969 64.2236 88.7763 64.2242 87.3336Z" fill="#29AC4A"/>
<path d="M81.8893 87.3336C81.8892 85.8153 82.2809 84.3229 83.0265 83.0016C83.772 81.6804 84.8459 80.5753 86.1436 79.7939C87.4413 79.0126 88.9185 78.5817 90.4315 78.5431C91.9445 78.5046 93.4417 78.8597 94.7773 79.5739C96.1129 80.2881 97.2413 81.337 98.0528 82.6186C98.8643 83.9002 99.3311 85.3707 99.4079 86.887C99.4846 88.4033 99.1686 89.9137 98.4907 91.2711C97.8128 92.6286 96.796 93.7868 95.5394 94.633C98.1076 95.5953 100.338 97.2918 101.955 99.5125C103.573 101.733 104.505 104.381 104.638 107.128C104.649 107.358 104.614 107.588 104.536 107.805C104.458 108.022 104.338 108.222 104.183 108.392C104.028 108.562 103.841 108.7 103.633 108.798C103.425 108.896 103.2 108.952 102.97 108.963H78.3385C77.8751 108.941 77.4393 108.735 77.127 108.391C76.8146 108.047 76.6512 107.593 76.6728 107.128C76.8051 104.381 77.7376 101.732 79.3547 99.5112C80.9719 97.2899 83.2028 95.5931 85.7713 94.6306C84.5762 93.8281 83.5967 92.7424 82.9196 91.4696C82.2425 90.1969 81.8886 88.7763 81.8893 87.3336Z" fill="#29AC4A"/>
<path d="M46.5612 87.3336C46.561 85.8153 46.9528 84.3229 47.6983 83.0016C48.4439 81.6804 49.5178 80.5753 50.8155 79.7939C52.1132 79.0126 53.5904 78.5817 55.1034 78.5431C56.6164 78.5046 58.1136 78.8597 59.4492 79.5739C60.7848 80.2881 61.9132 81.337 62.7247 82.6186C63.5362 83.9002 64.003 85.3707 64.0797 86.887C64.1565 88.4033 63.8405 89.9137 63.1626 91.2711C62.4847 92.6286 61.4679 93.7868 60.2113 94.633C62.7795 95.5953 65.0102 97.2918 66.6273 99.5125C68.2444 101.733 69.1771 104.381 69.3098 107.128C69.3205 107.358 69.2858 107.588 69.2077 107.805C69.1296 108.022 69.0097 108.222 68.8548 108.392C68.6999 108.562 68.513 108.7 68.3049 108.798C68.0968 108.896 67.8714 108.952 67.6418 108.963H43.0104C42.547 108.941 42.1112 108.735 41.7989 108.391C41.4865 108.047 41.3231 107.593 41.3447 107.128C41.477 104.381 42.4094 101.732 44.0266 99.5111C45.6437 97.2899 47.8746 95.5931 50.4432 94.6306C49.2481 93.8281 48.2686 92.7424 47.5915 91.4696C46.9144 90.1969 46.5605 88.7763 46.5612 87.3336Z" fill="#29AC4A"/>
<defs>
<filter id="filter0_d_2020_421" x="0" y="0" width="145" height="145" filterUnits="userSpaceOnUse" color-interpolation-filters="sRGB">
<feFlood flood-opacity="0" result="BackgroundImageFix"/>
<feColorMatrix in="SourceAlpha" type="matrix" values="0 0 0 0 0 0 0 0 0 0 0 0 0 0 0 0 0 0 127 0" result="hardAlpha"/>
<feOffset dy="4"/>
<feGaussianBlur stdDeviation="2"/>
<feComposite in2="hardAlpha" operator="out"/>
<feColorMatrix type="matrix" values="0 0 0 0 0 0 0 0 0 0 0 0 0 0 0 0 0 0 0.25 0"/>
<feBlend mode="normal" in2="BackgroundImageFix" result="effect1_dropShadow_2020_421"/>
<feBlend mode="normal" in="SourceGraphic" in2="effect1_dropShadow_2020_421" result="shape"/>
</filter>
</defs>
</svg>
