<svg width="145" height="145" viewBox="0 0 145 145" fill="none" xmlns="http://www.w3.org/2000/svg">
<g filter="url(#filter0_d_2020_380)">
<circle cx="72.5" cy="68.5" r="68.5" fill="#FAFAFA"/>
</g>
<mask id="path-2-outside-1_2020_380" maskUnits="userSpaceOnUse" x="50.5" y="28" width="47" height="37" fill="black">
<rect fill="white" x="50.5" y="28" width="47" height="37"/>
<path fill-rule="evenodd" clip-rule="evenodd" d="M53.2154 63.65H93.8846C94.8346 63.65 95.6 62.8841 95.6 61.9333V58.3999H92.1691V60.2167H54.9309V51.0788C54.9309 40.8053 63.2706 32.4597 73.5368 32.4597C81.9712 32.4597 89.123 38.0927 91.4067 45.7999H94.9668C92.6023 36.1739 83.8915 29 73.5368 29C61.3968 29 51.5 38.8774 51.5 51.0524V61.9333C51.5 62.8841 52.2654 63.65 53.2154 63.65Z"/>
</mask>
<path fill-rule="evenodd" clip-rule="evenodd" d="M53.2154 63.65H93.8846C94.8346 63.65 95.6 62.8841 95.6 61.9333V58.3999H92.1691V60.2167H54.9309V51.0788C54.9309 40.8053 63.2706 32.4597 73.5368 32.4597C81.9712 32.4597 89.123 38.0927 91.4067 45.7999H94.9668C92.6023 36.1739 83.8915 29 73.5368 29C61.3968 29 51.5 38.8774 51.5 51.0524V61.9333C51.5 62.8841 52.2654 63.65 53.2154 63.65Z" fill="#FFD633"/>
<path d="M95.6 58.3999H96.6V57.3999H95.6V58.3999ZM92.1691 58.3999V57.3999H91.1691V58.3999H92.1691ZM92.1691 60.2167V61.2167H93.1691V60.2167H92.1691ZM54.9309 60.2167H53.9309V61.2167H54.9309V60.2167ZM91.4067 45.7999L90.448 46.084L90.6601 46.7999H91.4067V45.7999ZM94.9668 45.7999V46.7999H96.2422L95.938 45.5614L94.9668 45.7999ZM93.8846 62.65H53.2154V64.65H93.8846V62.65ZM94.6 61.9333C94.6 62.3325 94.2817 62.65 93.8846 62.65V64.65C95.3876 64.65 96.6 63.4357 96.6 61.9333H94.6ZM94.6 58.3999V61.9333H96.6V58.3999H94.6ZM95.6 57.3999H92.1691V59.3999H95.6V57.3999ZM93.1691 60.2167V58.3999H91.1691V60.2167H93.1691ZM54.9309 61.2167H92.1691V59.2167H54.9309V61.2167ZM53.9309 51.0788V60.2167H55.9309V51.0788H53.9309ZM73.5368 31.4597C62.7176 31.4597 53.9309 40.2537 53.9309 51.0788H55.9309C55.9309 41.3569 63.8235 33.4597 73.5368 33.4597V31.4597ZM92.3655 45.5158C89.9595 37.3959 82.4263 31.4597 73.5368 31.4597V33.4597C81.5161 33.4597 88.2865 38.7896 90.448 46.084L92.3655 45.5158ZM91.4067 46.7999H94.9668V44.7999H91.4067V46.7999ZM73.5368 30C83.4194 30 91.7381 36.848 93.9957 46.0385L95.938 45.5614C93.4664 35.4997 84.3637 28 73.5368 28V30ZM52.5 51.0524C52.5 39.4298 61.9489 30 73.5368 30V28C60.8446 28 50.5 38.325 50.5 51.0524H52.5ZM52.5 61.9333V51.0524H50.5V61.9333H52.5ZM53.2154 62.65C52.8183 62.65 52.5 62.3325 52.5 61.9333H50.5C50.5 63.4357 51.7124 64.65 53.2154 64.65V62.65Z" fill="#FFD633" mask="url(#path-2-outside-1_2020_380)"/>
<path d="M48.5269 58.8608H96.4802C98.5301 58.8608 100.217 60.5805 100.217 62.6706V100.848C100.217 102.964 98.5301 104.657 96.4802 104.657H48.5269C46.477 104.657 44.7903 102.938 44.7903 100.848V62.6706C44.7644 60.5541 46.451 58.8608 48.5269 58.8608Z" fill="#29AC4A"/>
<path d="M96.4771 106.404H48.5239C45.5398 106.404 43.1006 103.917 43.1006 100.875V62.6713C43.1006 59.6023 45.5398 57.1418 48.5239 57.1418H96.4771C99.4872 57.1418 101.9 59.6288 101.9 62.6713V100.848C101.926 103.917 99.4872 106.404 96.4771 106.404ZM48.5239 60.5812C47.3821 60.5812 46.4739 61.5337 46.4739 62.6713V100.848C46.4739 102.012 47.4081 102.938 48.5239 102.938H96.4771C97.6189 102.938 98.527 101.986 98.527 100.848V62.6713C98.527 61.5072 97.5929 60.5812 96.4771 60.5812H48.5239Z" fill="#29AC4A"/>
<path d="M102.685 73.0684H42.3174V87.7223H102.685V73.0684Z" fill="#FFD633"/>
<path d="M52.9436 76.7747C55.2201 76.7747 57.0364 78.5915 57.0364 80.8444C57.0364 83.0973 55.2201 84.9383 52.9436 84.9383C50.6913 84.9383 48.875 83.0973 48.875 80.8444C48.875 78.5915 50.6913 76.7747 52.9436 76.7747Z" fill="white"/>
<path d="M72.5307 76.7744C74.8072 76.7744 76.5993 78.5913 76.5993 80.8441C76.5993 83.097 74.783 84.9381 72.5307 84.9381C70.2785 84.9381 68.4622 83.097 68.4622 80.8441C68.4379 78.5913 70.2785 76.7744 72.5307 76.7744Z" fill="white"/>
<path d="M92.1057 76.7756C94.358 76.7756 96.1985 78.5925 96.1985 80.8454C96.1985 83.0982 94.358 84.9393 92.1057 84.9393C89.8534 84.9393 88.0371 83.0982 88.0371 80.8454C88.0371 78.5925 89.8534 76.7756 92.1057 76.7756Z" fill="white"/>
<rect x="89.2568" y="42.3616" width="5.51912" height="8.5333" rx="2.75956" transform="rotate(-16.8412 89.2568 42.3616)" fill="#FFD633"/>
<defs>
<filter id="filter0_d_2020_380" x="0" y="0" width="145" height="145" filterUnits="userSpaceOnUse" color-interpolation-filters="sRGB">
<feFlood flood-opacity="0" result="BackgroundImageFix"/>
<feColorMatrix in="SourceAlpha" type="matrix" values="0 0 0 0 0 0 0 0 0 0 0 0 0 0 0 0 0 0 127 0" result="hardAlpha"/>
<feOffset dy="4"/>
<feGaussianBlur stdDeviation="2"/>
<feComposite in2="hardAlpha" operator="out"/>
<feColorMatrix type="matrix" values="0 0 0 0 0 0 0 0 0 0 0 0 0 0 0 0 0 0 0.25 0"/>
<feBlend mode="normal" in2="BackgroundImageFix" result="effect1_dropShadow_2020_380"/>
<feBlend mode="normal" in="SourceGraphic" in2="effect1_dropShadow_2020_380" result="shape"/>
</filter>
</defs>
</svg>
