<svg width="85" height="70" viewBox="0 0 85 70" fill="none" xmlns="http://www.w3.org/2000/svg">
<path d="M50.5677 69.6795C50.019 69.1089 49.2201 67.3669 48.3931 64.9377C48.0628 63.967 47.9795 63.7734 47.8879 63.7591C47.8257 63.7496 46.346 64.4064 44.5999 65.2216L40.4362 67.098C36.5934 68.6526 33.1974 69.1543 29.8226 68.666C29.5731 68.6301 29.3694 68.5814 29.3694 68.5585C29.3694 68.5356 29.4496 68.4991 29.5478 68.4774C30.3098 68.3109 32.0793 67.5854 33.0702 67.0334C37.9285 64.3269 41.4183 60.2289 43.6103 54.6553C44.4451 52.5331 45.0037 50.3646 45.1891 48.5289C45.2784 47.6412 45.2311 45.5925 45.1048 44.895C44.9153 43.8484 44.5711 42.8431 44.0343 41.7707C43.3776 40.4561 42.4682 39.3933 41.3661 38.6519C41.0355 38.4293 40.7157 38.2029 40.6557 38.1489C40.3099 37.8399 38.4245 37.2024 37.0033 36.9141C35.5299 36.6152 34.995 36.5726 32.7743 36.5758C30.2627 36.579 27.5854 36.757 22.394 37.2647C16.834 37.8052 13.5457 37.8141 11.1939 37.2851C9.55513 36.9163 7.97474 36.1119 7.01956 35.1591C4.86355 33.0099 4.67093 29.5499 6.51435 26.02C6.77801 25.5113 6.85695 25.4077 7.01893 25.3365C8.15252 24.8431 12.4642 24.5274 16.3734 24.6517C18.1429 24.7079 20.3728 24.8351 21.1098 24.9213L21.4394 24.9601L21.5414 25.2643C21.6109 25.4716 21.6519 25.7975 21.6709 26.2874C21.6946 26.8969 21.6803 27.0816 21.5815 27.4996C21.37 28.3889 20.9999 28.9748 20.291 29.5439C19.2945 30.3435 18.1912 30.5877 17.1492 30.2392C16.6692 30.0787 16.4002 29.8234 16.141 29.2823C15.6433 28.2445 15.631 27.4605 16.1072 27.0832C16.1855 27.0212 16.2493 26.9315 16.2493 26.8838C16.2493 26.5436 13.6082 27.5451 12.9385 28.1403C12.7939 28.2687 12.6395 28.4445 12.595 28.5313C12.4519 28.8101 12.3414 29.4253 12.3423 29.9381C12.3446 31.2687 13.0749 32.2828 14.247 32.5833C15.5552 32.919 17.4173 32.575 19.2973 31.6505C20.9686 30.8283 22.2257 29.7366 22.962 28.468C23.3621 27.7781 23.6472 26.9337 23.8304 25.8983C23.8945 25.5345 23.9636 25.2211 23.9838 25.202C24.0265 25.1623 26.1001 25.3527 28.2693 25.5953C33.953 26.2318 37.9045 27.0546 39.8521 28.0099C40.8947 28.5211 40.8057 28.3832 42.0836 31.4572L48.5709 47.0515L54.1087 60.418C54.187 60.6406 54.6385 61.7447 55.1122 62.8788C57.1703 67.8076 57.063 67.5319 56.9584 67.6133C56.8271 67.7157 55.1763 68.548 54.4159 68.8946C52.8766 69.594 51.6814 70 51.1352 70C50.9002 70 50.862 69.9784 50.5772 69.6821L50.5677 69.6795ZM24.0937 68.7528C21.7618 68.4911 19.7381 67.8054 18.1621 66.7435C17.0867 66.0186 16.3039 65.2317 15.5742 64.1409C14.6269 62.73 14.2543 61.5556 14.2458 59.9879C14.2413 59.2407 14.3436 58.1878 14.4242 58.1375C14.4437 58.1255 14.6686 58.3938 14.9237 58.7337C18.596 63.6284 23.0211 66.9981 27.4982 68.308C27.8664 68.4161 28.2024 68.5038 28.2453 68.5038C28.2883 68.5038 28.3227 68.5261 28.3227 68.5528C28.3227 68.6049 27.8048 68.6905 26.9498 68.7795C26.2488 68.8526 24.8657 68.8396 24.0937 68.7528ZM57.876 67.296C57.8498 67.2458 57.4889 66.3709 57.074 65.3526L54.8046 59.8502C54.4876 59.119 44.0271 33.4337 42.5067 29.6574C42.0412 28.5011 42.0394 28.4951 42.0694 28.1091C42.1871 26.5872 43.9567 23.5173 47.1537 19.2886C48.5279 17.471 51.3976 13.9274 51.527 13.887C51.5573 13.8775 51.8008 14.0279 52.0686 14.2208C52.6603 14.6469 53.6613 15.1943 54.1399 15.3533C55.3272 15.7475 56.769 15.7907 58.123 15.4725C60.1555 14.9947 61.9816 14.0282 63.075 12.8509C64.0192 11.8345 64.2086 10.7545 63.6333 9.66718C63.3134 9.06312 62.6525 8.45047 62.0135 8.16561C61.6661 8.00983 61.2471 8.04862 60.4646 8.31186C59.47 8.64632 58.1451 9.33685 58.1451 9.52061C58.1451 9.5772 58.2461 9.60327 58.5218 9.61917C58.8325 9.63697 58.9348 9.66845 59.1043 9.7988C59.5685 10.1549 60.0674 11.2435 60.0674 11.8993C60.0674 12.3832 59.8407 12.827 59.3298 13.3427C58.8805 13.7961 58.4488 14.0441 57.8356 14.2021C56.0358 14.6656 54.5817 14.0507 53.4949 12.3657C53.3638 12.1623 53.2574 11.9512 53.258 11.8958C53.2602 11.7731 54.9732 9.82614 56.6158 8.07977C59.0999 5.43876 61.5107 3.28545 63.2531 2.15045L63.7561 1.82299L64.1224 1.92536C66.2971 2.5326 68.2314 3.75884 69.3066 5.21049C69.7193 5.76781 70.1288 6.61382 70.3123 7.28782C70.5055 7.99775 70.5535 9.07997 70.4247 9.83123C70.1762 11.2851 69.5102 12.7752 68.508 14.1232C67.886 14.96 67.347 15.573 66.2844 16.6546C64.752 18.2146 63.8963 18.9738 60.0946 22.1464C54.834 26.537 52.5952 28.648 51.1285 30.6017C50.1538 31.9001 49.0571 33.924 48.8689 34.7703C48.5699 36.1183 48.5162 36.5688 48.5475 37.48C48.5775 38.3629 48.7395 39.2203 49.0369 40.0673C49.2933 40.7991 49.8699 42.0193 50.1715 42.4695C51.9618 45.1401 54.9372 47.3204 59.0781 48.9934C63.1934 50.6561 67.1957 51.1978 71.2128 50.6345C73.6205 50.2968 76.0099 49.5488 77.6932 48.6061C77.9673 48.4526 78.1921 48.3464 78.1921 48.3709C78.1921 48.3953 78.0191 48.6468 77.8075 48.9304C76.1049 51.2195 73.6931 53.1315 70.6675 54.6003L69.7338 55.0588C69.5286 55.1713 69.6182 55.3169 70.3218 56.0113C72.1008 57.7662 73.2283 58.3849 74.6445 58.3817C77.1706 58.3763 80.051 56.2707 83.4947 51.9119L84.2323 50.9782L84.4113 51.0561C84.5098 51.0987 84.584 51.1603 84.5765 51.1928C84.5689 51.2252 84.4142 51.533 84.2332 51.8773C83.9033 52.5049 82.2471 54.8108 82.0425 54.9271C81.9888 54.9577 81.6257 55.3404 81.2363 55.7846C80.3191 56.8226 78.554 58.63 77.763 59.3412C76.0945 60.8412 74.7547 61.739 73.6581 62.0897C73.1232 62.2614 72.1971 62.3008 71.7083 62.1723C71.2795 62.0601 70.7032 61.7648 70.3947 61.499C69.7136 60.9121 69.011 59.5968 68.3018 57.5815C67.904 56.4519 67.7366 56.0523 67.6346 55.9871C67.5696 55.9458 66.8288 56.1988 64.6712 56.9991L61.7261 58.0927C61.5954 58.1429 61.663 58.3248 62.1941 59.4166C63.3466 61.7711 63.9639 63.4781 63.9642 64.3126C63.9642 64.6433 63.9472 64.7037 63.8054 64.8658C63.3412 65.3967 61.171 66.3591 58.6222 67.1644C57.9922 67.3634 57.9158 67.3768 57.8732 67.2948L57.876 67.296ZM27.1421 66.4268L26.4831 66.3416C24.4054 66.0797 22.471 65.1637 21.1278 63.8065C20.4261 63.0975 19.9386 62.413 19.4321 61.4262C17.9645 58.5648 17.5306 55.8587 18.1691 53.5184C18.5123 52.2546 19.3949 50.9934 20.5294 50.1465C21.9345 49.0973 23.3848 48.5804 24.9207 48.5804C26.9337 48.5804 28.5362 49.38 29.4714 50.8513C29.6246 51.0923 29.6498 51.1743 29.6198 51.3346C29.5289 51.8219 28.485 52.9426 25.9633 55.2597C23.4012 57.6136 22.7789 58.2622 22.7789 58.5782C22.7789 58.7372 23.1246 59.2064 23.4126 59.4375C24.1136 60.0003 25.2093 60.2292 26.197 60.0181C27.1812 59.8082 28.7225 58.8109 29.893 57.6266C31.9022 55.5938 33.1068 52.6845 32.8305 50.5321C32.5874 48.6385 31.4895 47.1135 29.8854 46.4411C29.1522 46.1336 28.5838 46.0354 27.5298 46.0328C26.2523 46.0296 25.2791 46.2153 23.8774 46.7275C23.0555 47.0279 21.3614 47.8832 20.6645 48.3499C18.5445 49.7691 16.8921 51.718 15.5918 54.3332C15.1814 55.1579 14.6982 56.3753 14.5044 57.0706C14.4216 57.3672 14.3383 57.6098 14.319 57.6098C14.2458 57.6098 12.9309 55.5426 12.3171 54.4633C10.6183 51.4741 8.64858 47.3227 7.23081 43.7453C7.07987 43.3645 6.96652 43.0427 6.97915 43.03C6.99178 43.0173 7.35743 43.0628 7.7916 43.1311C8.47996 43.2392 8.79888 43.2557 10.2836 43.2577C12.0714 43.2602 12.3335 43.2395 14.54 42.9229C16.1984 42.6844 18.7068 42.2457 21.0179 41.7888C28.0388 40.4014 31.1147 39.9678 33.4058 40.0425C35.4068 40.1076 37.1874 40.4733 38.333 41.0541C39.7277 41.7615 40.7012 42.823 41.5041 44.5131C43.4543 48.6144 43.3229 52.6854 41.1015 56.9743C39.6339 59.8086 37.4829 62.166 34.6496 64.0481C32.6202 65.3961 31.2069 66.0065 29.3979 66.3197C28.9141 66.4033 27.4692 66.4723 27.1449 66.4268H27.1421ZM65.7524 49.3339C61.398 48.9651 57.3996 47.0903 55.1185 44.3465C53.7683 42.7229 52.6985 40.5314 52.2931 38.5603C52.169 37.9578 52.169 36.7163 52.2931 36.1364C52.5046 35.1432 52.905 34.2518 53.6145 33.1918C55.3651 30.5772 57.4374 28.8289 64.3472 24.1379C68.7205 21.1685 71.2479 19.3251 72.8513 17.9352C73.9145 17.0132 75.1895 15.6105 75.8311 14.6558C75.9369 14.4984 76.0446 14.376 76.0711 14.3842C76.0976 14.3925 76.2543 14.7212 76.4194 15.1155C78.2363 19.4456 79.788 23.9897 80.6115 27.3896C80.8947 28.5596 81.1596 29.8866 81.1182 29.9286C81.1047 29.9423 80.9755 29.8803 80.8309 29.7909C79.7207 29.1033 77.4118 28.249 75.7765 27.9215C74.2426 27.6144 72.5147 27.54 71.1358 27.7206C69.3558 27.9543 67.0394 28.7497 65.5834 29.6275C64.0409 30.5571 62.7627 31.8997 62.2664 33.112C61.7826 34.2928 61.8085 35.5912 62.3396 36.8635C63.1025 38.6846 64.9308 40.0352 67.532 40.699C68.5386 40.9559 69.3382 41.0392 70.4765 41.0074C71.9555 40.9651 73.162 40.7161 74.0705 40.265C74.9972 39.805 75.7522 38.8703 75.9429 37.9467C76.008 37.6313 75.9903 36.9516 75.9114 36.75C75.7841 36.4238 74.893 36.3723 71.9593 36.5211C69.2532 36.6588 66.8875 36.6616 66.3223 36.5281C66.0918 36.4741 65.866 36.3866 65.8203 36.3342C65.5875 36.0681 65.4855 34.7267 65.6412 33.9857C65.9829 32.3623 67.2791 30.7301 68.8882 29.8962C70.5301 29.0457 72.4809 28.7796 74.073 29.1891C76.5782 29.8332 78.7463 32.1948 79.972 35.6163C80.5104 37.1188 80.6958 38.1724 80.6452 39.4473C80.5947 40.7158 80.3522 41.6871 79.7842 42.8879C78.5173 45.5671 76.4043 47.4088 73.4888 48.3747C72.1374 48.8229 70.3502 49.1835 68.8282 49.3151C68.2251 49.3672 66.2787 49.3806 65.7527 49.3361L65.7524 49.3339ZM78.9063 47.632C78.9063 47.6123 79.0169 47.4037 79.1517 47.1678C80.218 45.3067 81.0519 42.8847 81.4545 40.4818C81.7387 38.8032 81.7861 38.1063 81.7867 35.9056C81.7877 33.7835 81.7337 32.9425 81.4855 31.1542C81.4267 30.7307 81.386 30.3769 81.3952 30.3677C81.4545 30.3079 82.4947 31.1482 82.9203 31.5993C84.0545 32.8023 84.6784 34.1847 84.9232 36.0353C85.3535 39.2902 83.9617 42.8517 81.1104 45.7909C80.2988 46.627 78.9063 47.791 78.9063 47.632ZM5.94187 42.5751C5.21089 42.3726 4.84239 42.2292 4.20519 41.8992C2.17548 40.8494 0.580882 38.6162 0.182392 36.2655C0.143553 36.0375 0.0993469 35.8881 0.0838746 35.9336C0.0684023 35.9791 0.0374577 35.7705 0.0153544 35.4694C-0.0275891 34.8844 0.0264061 33.779 0.0927159 33.8868C0.114819 33.9224 0.150184 33.7946 0.171656 33.6016C0.279646 32.6383 0.780443 31.1196 1.40944 29.8494C3.35547 25.9186 6.5595 22.6662 10.8539 20.2621C12.7737 19.1875 14.6948 18.5087 16.5148 18.2623C17.3096 18.1548 18.7251 18.1593 19.3747 18.2718C21.2187 18.5904 22.3978 19.541 23.1407 21.3068C23.4353 22.0068 23.6384 22.7101 23.7394 23.3806C23.8231 23.936 23.8477 24.9607 23.7783 25.002C23.7113 25.0414 21.5575 24.831 21.5162 24.7811C21.4953 24.7556 21.3962 24.5115 21.2957 24.2374C21.0731 23.6308 20.5821 22.6312 20.3043 22.2186C20.0371 21.8224 19.3696 21.1875 18.9538 20.9326C18.4896 20.6487 17.8653 20.408 17.1539 20.2395C16.5994 20.1079 16.4384 20.0945 15.4172 20.0939C14.1453 20.0929 13.6543 20.1702 12.6079 20.5371C10.4487 21.2937 8.16262 23.0732 6.97788 24.9203C6.78022 25.2287 6.77264 25.2338 6.27847 25.3877C5.51023 25.6274 4.82124 25.9847 4.43696 26.343C2.80352 27.8691 3.11834 32.2743 5.34382 39.0429C5.57117 39.735 5.94377 40.8052 6.17111 41.421C6.6776 42.7925 6.66054 42.735 6.56771 42.7302C6.52666 42.728 6.24563 42.6577 5.94345 42.5744L5.94187 42.5751ZM75.8893 13.496C74.7389 10.8807 73.2274 7.98408 71.9719 5.98909C70.443 3.56014 68.8067 1.7664 67.5282 1.11846C66.4969 0.595476 65.7303 0.649523 64.3245 1.34419L63.7204 1.64304L63.0889 1.52636C62.3261 1.38552 60.4378 1.35659 59.7112 1.47454C57.1788 1.8853 55.4469 2.69951 53.996 4.16102C52.8071 5.35864 52.1601 6.54006 51.9909 7.82352C51.8627 8.7932 52.0809 9.77877 52.7733 11.362C52.9944 11.8682 52.9956 11.8707 52.894 12.0033C52.8377 12.0751 52.5103 12.4738 52.1668 12.8897L51.5422 13.6457L51.3474 13.4836C50.6994 12.9456 49.9182 11.8081 49.4648 10.7421C49.1111 9.91007 48.957 9.24084 48.9564 8.53313C48.9555 7.54025 49.1942 6.80425 49.8248 5.85111C51.1162 3.89968 53.6733 2.19941 56.7999 1.20939C58.5975 0.64539 61.3762 0.118586 62.7037 0.094424C62.9374 0.0899731 62.9753 0.0785277 62.8685 0.0445096C62.7927 0.0200293 63.3801 0 64.1865 0C64.993 0 65.5806 0.0197114 65.5048 0.0445096C65.3949 0.0794815 65.4227 0.0899731 65.6422 0.094424C66.1367 0.104598 67.3833 0.269283 68.2358 0.436512C73.0057 1.37439 76.0572 3.54011 77.1157 6.73844C77.4472 7.74054 77.5495 8.35764 77.5546 9.38995C77.5599 10.5917 77.3714 11.4924 76.8934 12.5419C76.6938 12.9793 76.1564 13.9248 76.1071 13.9242C76.0913 13.9242 75.9935 13.7315 75.8893 13.496Z" fill="#29AC4A"/>
</svg>
