<svg width="54" height="54" viewBox="0 0 54 54" fill="none" xmlns="http://www.w3.org/2000/svg">
<path d="M27 54C41.9117 54 54 41.9117 54 27C54 12.0883 41.9117 0 27 0C12.0883 0 0 12.0883 0 27C0 41.9117 12.0883 54 27 54Z" fill="#FAFAFA"/>
<path d="M21.5437 42.5489C34.7317 42.5489 41.9437 31.6249 41.9437 22.1489C41.9437 21.8369 41.9357 21.5289 41.9237 21.2209C43.3237 20.2089 44.5397 18.9449 45.4997 17.5089C44.2157 18.0809 42.8317 18.4649 41.3837 18.6369C42.8637 17.7489 43.9997 16.3449 44.5357 14.6729C43.1517 15.4929 41.6157 16.0929 39.9837 16.4129C38.6757 15.0209 36.8117 14.1489 34.7517 14.1489C30.7917 14.1489 27.5797 17.3609 27.5797 21.3169C27.5797 21.8809 27.6437 22.4249 27.7677 22.9529C21.8077 22.6529 16.5237 19.8009 12.9917 15.4609C12.3757 16.5209 12.0197 17.7529 12.0197 19.0649C12.0197 21.5529 13.2837 23.7489 15.2117 25.0329C14.0357 24.9969 12.9317 24.6729 11.9637 24.1369C11.9637 24.1649 11.9637 24.1969 11.9637 24.2289C11.9637 27.7009 14.4357 30.6009 17.7157 31.2569C17.1117 31.4209 16.4797 31.5089 15.8277 31.5089C15.3677 31.5089 14.9157 31.4649 14.4797 31.3809C15.3917 34.2289 18.0397 36.3009 21.1757 36.3609C18.7197 38.2849 15.6317 39.4289 12.2717 39.4289C11.6917 39.4289 11.1237 39.3969 10.5597 39.3289C13.7277 41.3609 17.4957 42.5489 21.5437 42.5489Z" fill="#212C4F"/>
</svg>
