<svg width="1287" height="173" viewBox="0 0 1287 173" fill="none" xmlns="http://www.w3.org/2000/svg">
<path d="M0 110.1L23.8631 124.757C47.6369 139.689 95.6312 168.59 143 168.797C190.637 168.59 238.631 139.689 286 135.767C333.637 132.12 381.631 154.14 429 165.15C476.637 176.16 524.631 176.16 572 161.503C619.637 146.57 667.631 117.669 715 121.11C762.637 124.55 810.631 161.709 858 154.14C905.637 146.57 953.631 123.192 1001 111.976C1048.64 101.172 1096.63 102.53 1144 121.11C1191.64 139.689 1239.63 146.57 1262.87 150.493L1287 154.14V0H1263.14C1239.36 0 1191.37 0 1144 0C1096.36 0 1048.37 0 1001 0C953.363 0 905.369 0 858 0C810.363 0 762.369 0 715 0C667.363 0 619.369 0 572 0C524.363 0 476.369 0 429 0C381.363 0 333.369 0 286 0C238.363 0 190.369 0 143 0C95.3631 0 47.3687 0 24.1312 0H0V110.1Z" fill="url(#paint0_linear_1044_230)"/>
<defs>
<linearGradient id="paint0_linear_1044_230" x1="643" y1="0" x2="643" y2="173" gradientUnits="userSpaceOnUse">
<stop stop-color="#FF6464"/>
<stop offset="1" stop-color="#212C4F"/>
</linearGradient>
</defs>
</svg>
