<svg width="1288" height="115" viewBox="0 0 1288 115" fill="none" xmlns="http://www.w3.org/2000/svg">
<path d="M6.14973e-09 12.2375L23.8817 22.0091C47.6739 31.9642 95.7056 51.2322 143.111 53.8471C190.785 56.2785 238.817 41.5982 286.222 48.9384C333.896 56.2785 381.928 85.6393 429.333 80.7305C477.007 76.0053 525.039 36.5518 572.444 26.9178C620.118 17.2838 668.15 36.5518 715.556 36.6894C763.229 36.5518 811.261 17.2838 858.667 7.32871C906.341 -2.4429 954.372 -2.4429 1001.78 7.32871C1049.45 17.2838 1097.48 36.5518 1144.89 51.3698C1192.56 65.9125 1240.59 76.0053 1263.85 80.7305L1288 85.6393L1288 115L1264.12 115C1240.33 115 1192.29 115 1144.89 115C1097.21 115 1049.18 115 1001.78 115C954.104 115 906.072 115 858.667 115C810.993 115 762.961 115 715.556 115C667.882 115 619.85 115 572.444 115C524.771 115 476.739 115 429.333 115C381.659 115 333.628 115 286.222 115C238.548 115 190.517 115 143.111 115C95.4372 115 47.4056 115 24.15 115L5.77914e-08 115L6.14973e-09 12.2375Z" fill="url(#paint0_linear_1044_231)"/>
<defs>
<linearGradient id="paint0_linear_1044_231" x1="644" y1="2.93845e-07" x2="644" y2="115" gradientUnits="userSpaceOnUse">
<stop stop-color="#FFD633"/>
<stop offset="1" stop-color="#FF6464"/>
</linearGradient>
</defs>
</svg>
