<svg width="1885" height="1955" viewBox="0 0 1885 1955" fill="none" xmlns="http://www.w3.org/2000/svg">
<path d="M1885 942.958C1885 1463.74 1538.13 1955 1017.6 1955C497.071 1955 49.5 1539 0 1011.47C0 490.691 421.972 0 942.5 0C1463.03 0 1885 422.177 1885 942.958Z" fill="url(#paint0_radial_1293_217)"/>
<path d="M1496 949C1496 1254.41 1248.41 1502 943 1502C637.587 1502 390 1254.41 390 949C390 643.587 637.587 396 943 396C1248.41 396 1496 643.587 1496 949Z" fill="url(#paint1_radial_1293_217)"/>
<defs>
<radialGradient id="paint0_radial_1293_217" cx="0" cy="0" r="1" gradientUnits="userSpaceOnUse" gradientTransform="translate(942.5 942.958) rotate(90) scale(942.958 942.5)">
<stop offset="0.440625" stop-color="#FFE685"/>
<stop offset="0.9999" stop-color="#D9D9D9" stop-opacity="0"/>
<stop offset="1" stop-color="#D9D9D9" stop-opacity="0"/>
</radialGradient>
<radialGradient id="paint1_radial_1293_217" cx="0" cy="0" r="1" gradientUnits="userSpaceOnUse" gradientTransform="translate(942.181 838.4) rotate(90) scale(967.545 967.545)">
<stop stop-color="#FFDE5C"/>
<stop offset="1" stop-color="#FF6464" stop-opacity="0.5"/>
</radialGradient>
</defs>
</svg>
