<svg width="54" height="54" viewBox="0 0 54 54" fill="none" xmlns="http://www.w3.org/2000/svg">
<path d="M27 54C41.9117 54 54 41.9117 54 27C54 12.0883 41.9117 0 27 0C12.0883 0 0 12.0883 0 27C0 41.9117 12.0883 54 27 54Z" fill="#FAFAFA"/>
<path d="M44.509 18.3359C44.097 16.7879 42.877 15.5679 41.325 15.1519C38.517 14.3999 27.261 14.3999 27.261 14.3999C27.261 14.3999 16.005 14.3999 13.197 15.1519C11.649 15.5679 10.429 16.7839 10.013 18.3359C9.26099 21.1439 9.26099 26.9999 9.26099 26.9999C9.26099 26.9999 9.26099 32.8559 10.013 35.6639C10.429 37.2119 11.645 38.4319 13.197 38.8479C16.005 39.5999 27.261 39.5999 27.261 39.5999C27.261 39.5999 38.517 39.5999 41.325 38.8479C42.873 38.4319 44.093 37.2159 44.509 35.6639C45.261 32.8559 45.261 26.9999 45.261 26.9999C45.261 26.9999 45.261 21.1439 44.509 18.3359ZM23.661 32.3999V21.5999L33.013 26.9999L23.661 32.3999Z" fill="#212C4F"/>
</svg>
